<svg xmlns="http://www.w3.org/2000/svg" xmlns:xlink="http://www.w3.org/1999/xlink" width="346" zoomAndPan="magnify" viewBox="0 0 259.5 48" height="64" preserveAspectRatio="xMidYMid meet" version="1.0"><defs><g/><clipPath id="b543e50dad"><path d="M 2.402344 0 L 256.605469 0 L 256.605469 47.019531 L 2.402344 47.019531 Z M 2.402344 0 " clip-rule="nonzero"/></clipPath><clipPath id="581ed57a71"><path d="M 22.507812 0 L 69.53125 0 L 69.53125 46.902344 L 22.507812 46.902344 Z M 22.507812 0 " clip-rule="nonzero"/></clipPath><clipPath id="08c7f87986"><path d="M 23.664062 1.035156 L 68.375 1.035156 L 68.375 45.75 L 23.664062 45.75 Z M 23.664062 1.035156 " clip-rule="nonzero"/></clipPath><clipPath id="b75ae945e0"><path d="M 46.019531 1.035156 C 33.671875 1.035156 23.664062 11.046875 23.664062 23.390625 C 23.664062 35.738281 33.671875 45.75 46.019531 45.75 C 58.367188 45.75 68.375 35.738281 68.375 23.390625 C 68.375 11.046875 58.367188 1.035156 46.019531 1.035156 Z M 46.019531 1.035156 " clip-rule="nonzero"/></clipPath><clipPath id="3d392f1efd"><path d="M 23.664062 1.035156 L 68.363281 1.035156 L 68.363281 45.738281 L 23.664062 45.738281 Z M 23.664062 1.035156 " clip-rule="nonzero"/></clipPath><clipPath id="115ed616f4"><path d="M 46.015625 1.035156 C 33.671875 1.035156 23.664062 11.042969 23.664062 23.386719 C 23.664062 35.730469 33.671875 45.738281 46.015625 45.738281 C 58.359375 45.738281 68.363281 35.730469 68.363281 23.386719 C 68.363281 11.042969 58.359375 1.035156 46.015625 1.035156 Z M 46.015625 1.035156 " clip-rule="nonzero"/></clipPath><clipPath id="0990cdf70c"><path d="M 32.777344 10.148438 L 59.261719 10.148438 L 59.261719 36.636719 L 32.777344 36.636719 Z M 32.777344 10.148438 " clip-rule="nonzero"/></clipPath><clipPath id="db7bb24bbe"><path d="M 46.019531 10.148438 C 38.707031 10.148438 32.777344 16.078125 32.777344 23.390625 C 32.777344 30.707031 38.707031 36.636719 46.019531 36.636719 C 53.332031 36.636719 59.261719 30.707031 59.261719 23.390625 C 59.261719 16.078125 53.332031 10.148438 46.019531 10.148438 Z M 46.019531 10.148438 " clip-rule="nonzero"/></clipPath><clipPath id="514d3a9f6d"><path d="M 32.777344 10.148438 L 59.226562 10.148438 L 59.226562 36.597656 L 32.777344 36.597656 Z M 32.777344 10.148438 " clip-rule="nonzero"/></clipPath><clipPath id="0cb13218c6"><path d="M 46.019531 10.148438 C 38.707031 10.148438 32.777344 16.078125 32.777344 23.390625 C 32.777344 30.703125 38.707031 36.632812 46.019531 36.632812 C 53.332031 36.632812 59.261719 30.703125 59.261719 23.390625 C 59.261719 16.078125 53.332031 10.148438 46.019531 10.148438 Z M 46.019531 10.148438 " clip-rule="nonzero"/></clipPath><clipPath id="9461279072"><path d="M 34.617188 11.988281 L 57.421875 11.988281 L 57.421875 34.796875 L 34.617188 34.796875 Z M 34.617188 11.988281 " clip-rule="nonzero"/></clipPath><clipPath id="f40d3c7d36"><path d="M 46.019531 11.988281 C 39.722656 11.988281 34.617188 17.09375 34.617188 23.390625 C 34.617188 29.691406 39.722656 34.796875 46.019531 34.796875 C 52.316406 34.796875 57.421875 29.691406 57.421875 23.390625 C 57.421875 17.09375 52.316406 11.988281 46.019531 11.988281 Z M 46.019531 11.988281 " clip-rule="nonzero"/></clipPath><clipPath id="9f42a3a148"><path d="M 34.617188 12.488281 L 57.390625 12.488281 L 57.390625 34.527344 L 34.617188 34.527344 Z M 34.617188 12.488281 " clip-rule="nonzero"/></clipPath><clipPath id="a5ac92af63"><path d="M 36 16 L 56.546875 16 L 56.546875 33 L 36 33 Z M 36 16 " clip-rule="nonzero"/></clipPath><clipPath id="5fae2886b4"><path d="M 36 15 L 56.546875 15 L 56.546875 33.328125 L 36 33.328125 Z M 36 15 " clip-rule="nonzero"/></clipPath><clipPath id="6a8315ef6c"><path d="M 43 13.492188 L 49 13.492188 L 49 19 L 43 19 Z M 43 13.492188 " clip-rule="nonzero"/></clipPath><clipPath id="ada29c7b55"><path d="M 62 21.867188 L 64 21.867188 L 64 23 L 62 23 Z M 62 21.867188 " clip-rule="nonzero"/></clipPath><clipPath id="ab18195600"><path d="M 65 23 L 66.386719 23 L 66.386719 25 L 65 25 Z M 65 23 " clip-rule="nonzero"/></clipPath><clipPath id="b24f9952d0"><path d="M 65 25 L 66.386719 25 L 66.386719 27 L 65 27 Z M 65 25 " clip-rule="nonzero"/></clipPath><clipPath id="fc8da05153"><path d="M 63 26 L 64 26 L 64 27.746094 L 63 27.746094 Z M 63 26 " clip-rule="nonzero"/></clipPath><clipPath id="cbb5d1b0b9"><path d="M 62 27 L 64 27 L 64 27.746094 L 62 27.746094 Z M 62 27 " clip-rule="nonzero"/></clipPath><clipPath id="3c1d4b1a83"><path d="M 60.507812 25 L 62 25 L 62 27 L 60.507812 27 Z M 60.507812 25 " clip-rule="nonzero"/></clipPath><clipPath id="6a8da73b7e"><path d="M 60.507812 23 L 62 23 L 62 25 L 60.507812 25 Z M 60.507812 23 " clip-rule="nonzero"/></clipPath><clipPath id="d5f017f038"><path d="M 28 21.867188 L 30 21.867188 L 30 23 L 28 23 Z M 28 21.867188 " clip-rule="nonzero"/></clipPath><clipPath id="97c2a89bef"><path d="M 28 26 L 30 26 L 30 27.746094 L 28 27.746094 Z M 28 26 " clip-rule="nonzero"/></clipPath><clipPath id="2cb551555b"><path d="M 28 27 L 30 27 L 30 27.746094 L 28 27.746094 Z M 28 27 " clip-rule="nonzero"/></clipPath><clipPath id="6f5c557ed6"><path d="M 26.128906 25 L 28 25 L 28 27 L 26.128906 27 Z M 26.128906 25 " clip-rule="nonzero"/></clipPath><clipPath id="59543b1183"><path d="M 26.128906 23 L 28 23 L 28 25 L 26.128906 25 Z M 26.128906 23 " clip-rule="nonzero"/></clipPath></defs><g clip-path="url(#b543e50dad)"><path fill="#ffffff" d="M 2.402344 0 L 256.605469 0 L 256.605469 47.019531 L 2.402344 47.019531 Z M 2.402344 0 " fill-opacity="1" fill-rule="nonzero"/><path fill="#122031" d="M 2.402344 0 L 256.605469 0 L 256.605469 47.019531 L 2.402344 47.019531 Z M 2.402344 0 " fill-opacity="1" fill-rule="nonzero"/></g><g fill="#b1deef" fill-opacity="1"><g transform="translate(126.591719, 35.358785)"><g><path d="M 0.09375 -4.359375 L 0.09375 -5.203125 L 2.296875 -5.203125 L 2.296875 -4.359375 C 2.160156 -4.359375 2.0625 -4.347656 2 -4.328125 C 1.945312 -4.304688 1.921875 -4.253906 1.921875 -4.171875 C 1.921875 -4.085938 1.941406 -3.960938 1.984375 -3.796875 L 2.375 -2.109375 L 3.140625 -5.203125 L 4.203125 -5.203125 L 4.953125 -2.125 L 5.34375 -3.78125 C 5.363281 -3.875 5.378906 -3.953125 5.390625 -4.015625 C 5.410156 -4.078125 5.421875 -4.132812 5.421875 -4.1875 C 5.421875 -4.257812 5.390625 -4.304688 5.328125 -4.328125 C 5.273438 -4.347656 5.179688 -4.359375 5.046875 -4.359375 L 5.046875 -5.203125 L 6.875 -5.203125 L 6.875 -4.359375 C 6.726562 -4.359375 6.613281 -4.347656 6.53125 -4.328125 C 6.457031 -4.304688 6.398438 -4.253906 6.359375 -4.171875 C 6.328125 -4.097656 6.285156 -3.976562 6.234375 -3.8125 L 5.28125 0 L 4.296875 0 L 3.484375 -3.21875 L 2.6875 0 L 1.71875 0 L 0.75 -3.8125 C 0.707031 -3.976562 0.664062 -4.097656 0.625 -4.171875 C 0.582031 -4.253906 0.519531 -4.304688 0.4375 -4.328125 C 0.363281 -4.347656 0.25 -4.359375 0.09375 -4.359375 Z M 0.09375 -4.359375 "/></g></g></g><g fill="#b1deef" fill-opacity="1"><g transform="translate(135.481564, 35.358785)"><g><path d="M 0.53125 -2.46875 L 0.53125 -3.5 C 0.53125 -3.5 0.578125 -3.523438 0.671875 -3.578125 C 0.773438 -3.628906 0.9375 -3.675781 1.15625 -3.71875 C 1.375 -3.769531 1.648438 -3.796875 1.984375 -3.796875 C 2.578125 -3.796875 3.015625 -3.703125 3.296875 -3.515625 C 3.585938 -3.328125 3.734375 -3.023438 3.734375 -2.609375 L 3.734375 -1.125 C 3.734375 -0.945312 3.753906 -0.832031 3.796875 -0.78125 C 3.847656 -0.738281 3.96875 -0.71875 4.15625 -0.71875 L 4.15625 0 C 4.15625 0 4.101562 0.0078125 4 0.03125 C 3.894531 0.0625 3.742188 0.078125 3.546875 0.078125 C 3.085938 0.078125 2.789062 -0.0664062 2.65625 -0.359375 C 2.519531 -0.242188 2.347656 -0.140625 2.140625 -0.046875 C 1.929688 0.0351562 1.679688 0.078125 1.390625 0.078125 C 1.035156 0.078125 0.75 0 0.53125 -0.15625 C 0.320312 -0.320312 0.21875 -0.59375 0.21875 -0.96875 C 0.21875 -1.40625 0.40625 -1.734375 0.78125 -1.953125 C 1.164062 -2.179688 1.765625 -2.296875 2.578125 -2.296875 L 2.578125 -2.4375 C 2.578125 -2.632812 2.515625 -2.773438 2.390625 -2.859375 C 2.273438 -2.953125 2.117188 -3 1.921875 -3 C 1.710938 -3 1.550781 -2.957031 1.4375 -2.875 C 1.332031 -2.789062 1.273438 -2.65625 1.265625 -2.46875 Z M 2.578125 -1.65625 C 2.171875 -1.644531 1.867188 -1.597656 1.671875 -1.515625 C 1.472656 -1.429688 1.375 -1.300781 1.375 -1.125 C 1.375 -1 1.414062 -0.90625 1.5 -0.84375 C 1.582031 -0.78125 1.691406 -0.75 1.828125 -0.75 C 1.992188 -0.75 2.140625 -0.78125 2.265625 -0.84375 C 2.390625 -0.90625 2.492188 -0.972656 2.578125 -1.046875 Z M 2.578125 -1.65625 "/></g></g></g><g fill="#b1deef" fill-opacity="1"><g transform="translate(141.702801, 35.358785)"><g><path d="M 0.09375 -2.84375 L 0.09375 -3.71875 L 0.609375 -3.71875 L 0.890625 -4.828125 L 1.765625 -4.828125 L 1.765625 -3.71875 L 2.53125 -3.71875 L 2.53125 -2.84375 L 1.765625 -2.84375 L 1.765625 -1.25 C 1.765625 -0.957031 1.894531 -0.8125 2.15625 -0.8125 C 2.28125 -0.8125 2.375 -0.847656 2.4375 -0.921875 C 2.5 -0.992188 2.53125 -1.125 2.53125 -1.3125 L 3.265625 -1.3125 L 3.265625 -0.125 C 3.265625 -0.125 3.15625 -0.09375 2.9375 -0.03125 C 2.726562 0.03125 2.425781 0.0625 2.03125 0.0625 C 1.550781 0.0625 1.191406 -0.0507812 0.953125 -0.28125 C 0.722656 -0.507812 0.609375 -0.835938 0.609375 -1.265625 L 0.609375 -2.84375 Z M 0.09375 -2.84375 "/></g></g></g><g fill="#b1deef" fill-opacity="1"><g transform="translate(146.990442, 35.358785)"><g><path d="M 0.234375 -1.859375 C 0.234375 -3.148438 0.832031 -3.796875 2.03125 -3.796875 C 2.625 -3.796875 3.070312 -3.640625 3.375 -3.328125 C 3.675781 -3.015625 3.828125 -2.570312 3.828125 -2 L 3.828125 -1.515625 L 1.40625 -1.515625 C 1.457031 -1.234375 1.550781 -1.035156 1.6875 -0.921875 C 1.832031 -0.804688 2.019531 -0.75 2.25 -0.75 C 2.476562 -0.75 2.648438 -0.789062 2.765625 -0.875 C 2.878906 -0.957031 2.957031 -1.066406 3 -1.203125 L 3.796875 -1.203125 L 3.796875 -0.359375 C 3.796875 -0.359375 3.742188 -0.320312 3.640625 -0.25 C 3.546875 -0.1875 3.378906 -0.113281 3.140625 -0.03125 C 2.910156 0.0390625 2.59375 0.078125 2.1875 0.078125 C 1.5 0.078125 1 -0.0859375 0.6875 -0.421875 C 0.382812 -0.753906 0.234375 -1.234375 0.234375 -1.859375 Z M 2.75 -2.203125 C 2.71875 -2.492188 2.644531 -2.691406 2.53125 -2.796875 C 2.414062 -2.910156 2.265625 -2.96875 2.078125 -2.96875 C 1.890625 -2.96875 1.738281 -2.910156 1.625 -2.796875 C 1.507812 -2.691406 1.4375 -2.492188 1.40625 -2.203125 Z M 2.75 -2.203125 "/></g></g></g><g fill="#b1deef" fill-opacity="1"><g transform="translate(152.963822, 35.358785)"><g><path d="M 0.328125 -3.71875 L 1.46875 -3.71875 L 1.6875 -3.34375 C 1.789062 -3.46875 1.925781 -3.570312 2.09375 -3.65625 C 2.269531 -3.75 2.484375 -3.796875 2.734375 -3.796875 C 3.015625 -3.796875 3.226562 -3.769531 3.375 -3.71875 C 3.519531 -3.675781 3.617188 -3.628906 3.671875 -3.578125 C 3.722656 -3.523438 3.75 -3.5 3.75 -3.5 L 3.75 -2.25 L 3.015625 -2.25 C 3.015625 -2.476562 2.96875 -2.644531 2.875 -2.75 C 2.789062 -2.863281 2.644531 -2.921875 2.4375 -2.921875 C 2.3125 -2.921875 2.203125 -2.898438 2.109375 -2.859375 C 2.023438 -2.816406 1.953125 -2.769531 1.890625 -2.71875 L 1.890625 -1.15625 C 1.890625 -0.96875 1.914062 -0.847656 1.96875 -0.796875 C 2.019531 -0.753906 2.132812 -0.734375 2.3125 -0.734375 L 2.3125 0 L 0.328125 0 L 0.328125 -0.734375 C 0.503906 -0.734375 0.613281 -0.753906 0.65625 -0.796875 C 0.707031 -0.847656 0.734375 -0.96875 0.734375 -1.15625 L 0.734375 -2.578125 C 0.734375 -2.765625 0.710938 -2.878906 0.671875 -2.921875 C 0.628906 -2.960938 0.515625 -2.984375 0.328125 -2.984375 Z M 0.328125 -3.71875 "/></g></g></g><g fill="#b1deef" fill-opacity="1"><g transform="translate(158.83806, 35.358785)"><g/></g></g><g fill="#b1deef" fill-opacity="1"><g transform="translate(162.688121, 35.358785)"><g><path d="M 0.671875 -4.515625 L 0.671875 -5.71875 L 1.890625 -5.71875 L 1.890625 -4.515625 Z M 0.296875 -3.71875 L 1.875 -3.71875 L 1.875 -1.15625 C 1.875 -0.96875 1.894531 -0.847656 1.9375 -0.796875 C 1.988281 -0.753906 2.101562 -0.734375 2.28125 -0.734375 L 2.28125 0 L 0.296875 0 L 0.296875 -0.734375 C 0.484375 -0.734375 0.597656 -0.753906 0.640625 -0.796875 C 0.679688 -0.847656 0.703125 -0.96875 0.703125 -1.15625 L 0.703125 -2.578125 C 0.703125 -2.765625 0.679688 -2.878906 0.640625 -2.921875 C 0.597656 -2.960938 0.484375 -2.984375 0.296875 -2.984375 Z M 0.296875 -3.71875 "/></g></g></g><g fill="#b1deef" fill-opacity="1"><g transform="translate(167.042154, 35.358785)"><g><path d="M 0.234375 -0.234375 L 0.234375 -1.25 L 0.96875 -1.25 C 1.03125 -1.09375 1.132812 -0.96875 1.28125 -0.875 C 1.425781 -0.789062 1.628906 -0.75 1.890625 -0.75 C 2.066406 -0.75 2.191406 -0.773438 2.265625 -0.828125 C 2.335938 -0.890625 2.375 -0.960938 2.375 -1.046875 C 2.375 -1.128906 2.347656 -1.195312 2.296875 -1.25 C 2.253906 -1.300781 2.164062 -1.34375 2.03125 -1.375 L 1.296875 -1.578125 C 0.941406 -1.671875 0.675781 -1.8125 0.5 -2 C 0.320312 -2.1875 0.234375 -2.429688 0.234375 -2.734375 C 0.234375 -3.054688 0.347656 -3.3125 0.578125 -3.5 C 0.816406 -3.695312 1.222656 -3.796875 1.796875 -3.796875 C 2.179688 -3.796875 2.488281 -3.769531 2.71875 -3.71875 C 2.945312 -3.664062 3.109375 -3.613281 3.203125 -3.5625 C 3.304688 -3.507812 3.359375 -3.484375 3.359375 -3.484375 L 3.359375 -2.46875 L 2.640625 -2.46875 C 2.546875 -2.800781 2.265625 -2.96875 1.796875 -2.96875 C 1.523438 -2.96875 1.390625 -2.867188 1.390625 -2.671875 C 1.390625 -2.523438 1.488281 -2.421875 1.6875 -2.359375 L 2.453125 -2.15625 C 2.867188 -2.03125 3.148438 -1.878906 3.296875 -1.703125 C 3.441406 -1.523438 3.515625 -1.289062 3.515625 -1 C 3.515625 -0.65625 3.382812 -0.390625 3.125 -0.203125 C 2.875 -0.015625 2.460938 0.078125 1.890625 0.078125 C 1.503906 0.078125 1.1875 0.0507812 0.9375 0 C 0.695312 -0.0507812 0.519531 -0.101562 0.40625 -0.15625 C 0.289062 -0.207031 0.234375 -0.234375 0.234375 -0.234375 Z M 0.234375 -0.234375 "/></g></g></g><g fill="#b1deef" fill-opacity="1"><g transform="translate(172.718099, 35.358785)"><g/></g></g><g fill="#b1deef" fill-opacity="1"><g transform="translate(176.56816, 35.358785)"><g><path d="M 0.140625 0 L 0.140625 -0.734375 C 0.316406 -0.734375 0.429688 -0.753906 0.484375 -0.796875 C 0.535156 -0.847656 0.5625 -0.96875 0.5625 -1.15625 L 0.5625 -4.421875 C 0.5625 -4.609375 0.535156 -4.722656 0.484375 -4.765625 C 0.441406 -4.816406 0.328125 -4.84375 0.140625 -4.84375 L 0.140625 -5.578125 L 1.71875 -5.578125 L 1.71875 -1.15625 C 1.71875 -0.96875 1.738281 -0.847656 1.78125 -0.796875 C 1.832031 -0.753906 1.945312 -0.734375 2.125 -0.734375 L 2.125 0 Z M 0.140625 0 "/></g></g></g><g fill="#b1deef" fill-opacity="1"><g transform="translate(180.773477, 35.358785)"><g><path d="M 0.671875 -4.515625 L 0.671875 -5.71875 L 1.890625 -5.71875 L 1.890625 -4.515625 Z M 0.296875 -3.71875 L 1.875 -3.71875 L 1.875 -1.15625 C 1.875 -0.96875 1.894531 -0.847656 1.9375 -0.796875 C 1.988281 -0.753906 2.101562 -0.734375 2.28125 -0.734375 L 2.28125 0 L 0.296875 0 L 0.296875 -0.734375 C 0.484375 -0.734375 0.597656 -0.753906 0.640625 -0.796875 C 0.679688 -0.847656 0.703125 -0.96875 0.703125 -1.15625 L 0.703125 -2.578125 C 0.703125 -2.765625 0.679688 -2.878906 0.640625 -2.921875 C 0.597656 -2.960938 0.484375 -2.984375 0.296875 -2.984375 Z M 0.296875 -3.71875 "/></g></g></g><g fill="#b1deef" fill-opacity="1"><g transform="translate(185.12751, 35.358785)"><g><path d="M 2.140625 -5.65625 C 2.535156 -5.65625 2.828125 -5.625 3.015625 -5.5625 C 3.210938 -5.5 3.3125 -5.46875 3.3125 -5.46875 L 3.3125 -4.359375 L 2.578125 -4.359375 C 2.578125 -4.535156 2.535156 -4.65625 2.453125 -4.71875 C 2.378906 -4.789062 2.28125 -4.828125 2.15625 -4.828125 C 1.875 -4.828125 1.734375 -4.679688 1.734375 -4.390625 L 1.734375 -4.109375 C 1.734375 -4.003906 1.765625 -3.910156 1.828125 -3.828125 C 1.890625 -3.753906 1.988281 -3.71875 2.125 -3.71875 L 2.71875 -3.71875 L 2.71875 -2.984375 L 1.875 -2.984375 L 1.875 -1.15625 C 1.875 -0.96875 1.898438 -0.847656 1.953125 -0.796875 C 2.003906 -0.753906 2.117188 -0.734375 2.296875 -0.734375 L 2.296875 0 L 0.3125 0 L 0.3125 -0.734375 C 0.488281 -0.734375 0.597656 -0.753906 0.640625 -0.796875 C 0.691406 -0.847656 0.71875 -0.96875 0.71875 -1.15625 L 0.71875 -2.984375 L 0.203125 -2.984375 L 0.203125 -3.71875 L 0.71875 -3.71875 L 0.71875 -4.3125 C 0.71875 -4.75 0.832031 -5.082031 1.0625 -5.3125 C 1.289062 -5.539062 1.648438 -5.65625 2.140625 -5.65625 Z M 2.140625 -5.65625 "/></g></g></g><g fill="#b1deef" fill-opacity="1"><g transform="translate(190.448189, 35.358785)"><g><path d="M 0.234375 -1.859375 C 0.234375 -3.148438 0.832031 -3.796875 2.03125 -3.796875 C 2.625 -3.796875 3.070312 -3.640625 3.375 -3.328125 C 3.675781 -3.015625 3.828125 -2.570312 3.828125 -2 L 3.828125 -1.515625 L 1.40625 -1.515625 C 1.457031 -1.234375 1.550781 -1.035156 1.6875 -0.921875 C 1.832031 -0.804688 2.019531 -0.75 2.25 -0.75 C 2.476562 -0.75 2.648438 -0.789062 2.765625 -0.875 C 2.878906 -0.957031 2.957031 -1.066406 3 -1.203125 L 3.796875 -1.203125 L 3.796875 -0.359375 C 3.796875 -0.359375 3.742188 -0.320312 3.640625 -0.25 C 3.546875 -0.1875 3.378906 -0.113281 3.140625 -0.03125 C 2.910156 0.0390625 2.59375 0.078125 2.1875 0.078125 C 1.5 0.078125 1 -0.0859375 0.6875 -0.421875 C 0.382812 -0.753906 0.234375 -1.234375 0.234375 -1.859375 Z M 2.75 -2.203125 C 2.71875 -2.492188 2.644531 -2.691406 2.53125 -2.796875 C 2.414062 -2.910156 2.265625 -2.96875 2.078125 -2.96875 C 1.890625 -2.96875 1.738281 -2.910156 1.625 -2.796875 C 1.507812 -2.691406 1.4375 -2.492188 1.40625 -2.203125 Z M 2.75 -2.203125 "/></g></g></g><g clip-path="url(#581ed57a71)"><path fill="#ffffff" d="M 69.53125 23.390625 C 69.53125 24.164062 69.492188 24.929688 69.417969 25.695312 C 69.339844 26.464844 69.226562 27.222656 69.078125 27.980469 C 68.929688 28.734375 68.742188 29.480469 68.519531 30.21875 C 68.292969 30.953125 68.035156 31.679688 67.742188 32.390625 C 67.445312 33.101562 67.117188 33.796875 66.753906 34.476562 C 66.390625 35.152344 65.996094 35.8125 65.566406 36.453125 C 65.140625 37.09375 64.683594 37.710938 64.195312 38.308594 C 63.703125 38.902344 63.1875 39.472656 62.644531 40.015625 C 62.097656 40.5625 61.53125 41.078125 60.933594 41.566406 C 60.339844 42.054688 59.722656 42.511719 59.082031 42.941406 C 58.441406 43.367188 57.78125 43.761719 57.101562 44.125 C 56.421875 44.488281 55.726562 44.816406 55.015625 45.113281 C 54.304688 45.40625 53.582031 45.667969 52.84375 45.890625 C 52.109375 46.113281 51.363281 46.300781 50.605469 46.449219 C 49.851562 46.601562 49.089844 46.714844 48.324219 46.789062 C 47.558594 46.863281 46.789062 46.902344 46.019531 46.902344 C 45.25 46.902344 44.480469 46.863281 43.714844 46.789062 C 42.949219 46.714844 42.1875 46.601562 41.433594 46.449219 C 40.679688 46.300781 39.933594 46.113281 39.195312 45.890625 C 38.457031 45.667969 37.734375 45.40625 37.023438 45.113281 C 36.3125 44.816406 35.617188 44.488281 34.9375 44.125 C 34.257812 43.761719 33.597656 43.367188 32.957031 42.941406 C 32.316406 42.511719 31.699219 42.054688 31.105469 41.566406 C 30.511719 41.078125 29.941406 40.5625 29.394531 40.015625 C 28.851562 39.472656 28.335938 38.902344 27.847656 38.308594 C 27.359375 37.710938 26.898438 37.09375 26.472656 36.453125 C 26.042969 35.8125 25.648438 35.152344 25.285156 34.476562 C 24.921875 33.796875 24.59375 33.101562 24.300781 32.390625 C 24.003906 31.679688 23.746094 30.953125 23.523438 30.21875 C 23.296875 29.480469 23.113281 28.734375 22.960938 27.980469 C 22.8125 27.222656 22.699219 26.464844 22.621094 25.695312 C 22.546875 24.929688 22.507812 24.164062 22.507812 23.390625 C 22.507812 22.621094 22.546875 21.855469 22.621094 21.089844 C 22.699219 20.320312 22.8125 19.5625 22.960938 18.804688 C 23.113281 18.050781 23.296875 17.304688 23.523438 16.566406 C 23.746094 15.832031 24.003906 15.105469 24.300781 14.394531 C 24.59375 13.683594 24.921875 12.988281 25.285156 12.308594 C 25.648438 11.628906 26.042969 10.972656 26.472656 10.332031 C 26.898438 9.691406 27.359375 9.074219 27.847656 8.476562 C 28.335938 7.882812 28.851562 7.3125 29.394531 6.769531 C 29.941406 6.222656 30.511719 5.707031 31.105469 5.21875 C 31.699219 4.730469 32.316406 4.273438 32.957031 3.84375 C 33.597656 3.417969 34.257812 3.019531 34.9375 2.660156 C 35.617188 2.296875 36.3125 1.964844 37.023438 1.671875 C 37.734375 1.378906 38.457031 1.117188 39.195312 0.894531 C 39.933594 0.671875 40.679688 0.484375 41.433594 0.332031 C 42.1875 0.183594 42.949219 0.0703125 43.714844 -0.00390625 C 44.480469 -0.078125 45.25 -0.117188 46.019531 -0.117188 C 46.789062 -0.117188 47.558594 -0.078125 48.324219 -0.00390625 C 49.089844 0.0703125 49.851562 0.183594 50.605469 0.332031 C 51.363281 0.484375 52.109375 0.671875 52.84375 0.894531 C 53.582031 1.117188 54.304688 1.378906 55.015625 1.671875 C 55.726562 1.964844 56.421875 2.296875 57.101562 2.660156 C 57.78125 3.019531 58.441406 3.417969 59.082031 3.84375 C 59.722656 4.273438 60.339844 4.730469 60.933594 5.21875 C 61.53125 5.707031 62.097656 6.222656 62.644531 6.769531 C 63.1875 7.3125 63.703125 7.882812 64.195312 8.476562 C 64.683594 9.074219 65.140625 9.691406 65.566406 10.332031 C 65.996094 10.972656 66.390625 11.628906 66.753906 12.308594 C 67.117188 12.988281 67.445312 13.683594 67.742188 14.394531 C 68.035156 15.105469 68.292969 15.832031 68.519531 16.566406 C 68.742188 17.304688 68.929688 18.050781 69.078125 18.804688 C 69.226562 19.5625 69.339844 20.320312 69.417969 21.089844 C 69.492188 21.855469 69.53125 22.621094 69.53125 23.390625 Z M 69.53125 23.390625 " fill-opacity="1" fill-rule="nonzero"/></g><g clip-path="url(#08c7f87986)"><g clip-path="url(#b75ae945e0)"><path fill="#003f67" d="M 23.664062 1.035156 L 68.375 1.035156 L 68.375 45.75 L 23.664062 45.75 Z M 23.664062 1.035156 " fill-opacity="1" fill-rule="nonzero"/></g></g><g clip-path="url(#3d392f1efd)"><g clip-path="url(#115ed616f4)"><path stroke-linecap="butt" transform="matrix(0.734694, 0, 0, 0.734694, 23.663454, 1.036078)" fill="none" stroke-linejoin="miter" d="M 30.423792 -0.00125463 C 13.622575 -0.00125463 0.000828759 13.620491 0.000828759 30.421708 C 0.000828759 47.222925 13.622575 60.844671 30.423792 60.844671 C 47.225009 60.844671 60.841438 47.222925 60.841438 30.421708 C 60.841438 13.620491 47.225009 -0.00125463 30.423792 -0.00125463 Z M 30.423792 -0.00125463 " stroke="#0375be" stroke-width="4" stroke-opacity="1" stroke-miterlimit="4"/></g></g><g fill="#ffffff" fill-opacity="1"><g transform="translate(30.526679, 35.105504)"><g><path d="M 0.25 -0.0625 L 1.140625 -0.875 L 1.71875 -0.234375 C 1.65625 -0.0351562 1.644531 0.15625 1.6875 0.34375 C 1.726562 0.53125 1.84375 0.722656 2.03125 0.921875 C 2.132812 1.046875 2.222656 1.113281 2.296875 1.125 C 2.367188 1.144531 2.441406 1.125 2.515625 1.0625 C 2.578125 1.007812 2.601562 0.941406 2.59375 0.859375 C 2.582031 0.773438 2.546875 0.664062 2.484375 0.53125 L 2.09375 -0.25 C 1.914062 -0.582031 1.84375 -0.882812 1.875 -1.15625 C 1.914062 -1.4375 2.0625 -1.691406 2.3125 -1.921875 C 2.625 -2.203125 2.953125 -2.304688 3.296875 -2.234375 C 3.640625 -2.160156 4.023438 -1.882812 4.453125 -1.40625 C 4.679688 -1.144531 4.863281 -0.898438 5 -0.671875 C 5.132812 -0.453125 5.226562 -0.273438 5.28125 -0.140625 C 5.332031 -0.00390625 5.359375 0.0625 5.359375 0.0625 L 4.484375 0.859375 L 3.90625 0.21875 C 3.988281 0.0390625 4.007812 -0.132812 3.96875 -0.3125 C 3.925781 -0.5 3.828125 -0.679688 3.671875 -0.859375 C 3.585938 -0.941406 3.507812 -1 3.4375 -1.03125 C 3.375 -1.0625 3.304688 -1.046875 3.234375 -0.984375 C 3.171875 -0.921875 3.132812 -0.851562 3.125 -0.78125 C 3.113281 -0.707031 3.144531 -0.597656 3.21875 -0.453125 L 3.625 0.359375 C 3.800781 0.710938 3.875 1.023438 3.84375 1.296875 C 3.8125 1.566406 3.671875 1.816406 3.421875 2.046875 C 3.242188 2.203125 3.046875 2.296875 2.828125 2.328125 C 2.617188 2.367188 2.378906 2.320312 2.109375 2.1875 C 1.835938 2.0625 1.546875 1.820312 1.234375 1.46875 C 0.972656 1.175781 0.769531 0.910156 0.625 0.671875 C 0.488281 0.441406 0.390625 0.257812 0.328125 0.125 C 0.273438 0 0.25 -0.0625 0.25 -0.0625 Z M 0.25 -0.0625 "/></g></g></g><g fill="#ffffff" fill-opacity="1"><g transform="translate(36.102968, 40.23272)"><g><path d="M 5.515625 -2.078125 L 4.875 -0.671875 L 4.09375 -1.03125 C 4.164062 -1.195312 4.207031 -1.320312 4.21875 -1.40625 C 4.226562 -1.488281 4.195312 -1.554688 4.125 -1.609375 C 4.0625 -1.671875 3.941406 -1.742188 3.765625 -1.828125 L 3.03125 -2.15625 L 2.75 -1.546875 L 3.75 -1.09375 L 3.359375 -0.234375 L 2.359375 -0.6875 L 2.078125 -0.078125 L 2.8125 0.25 C 2.988281 0.332031 3.117188 0.378906 3.203125 0.390625 C 3.285156 0.410156 3.359375 0.382812 3.421875 0.3125 C 3.484375 0.238281 3.550781 0.125 3.625 -0.03125 L 4.40625 0.328125 L 3.765625 1.734375 L 1.6875 0.78125 L 1 0.453125 L 0.21875 0.09375 L 0.578125 -0.6875 C 0.691406 -0.625 0.773438 -0.597656 0.828125 -0.609375 C 0.878906 -0.628906 0.929688 -0.695312 0.984375 -0.8125 L 1.765625 -2.5 C 1.816406 -2.625 1.832031 -2.710938 1.8125 -2.765625 C 1.789062 -2.816406 1.722656 -2.875 1.609375 -2.9375 L 1.96875 -3.71875 L 2.75 -3.359375 L 3.4375 -3.03125 Z M 5.515625 -2.078125 "/></g></g></g><g fill="#ffffff" fill-opacity="1"><g transform="translate(43.637436, 42.86843)"><g><path d="M 0.234375 -3.328125 L 0.234375 -4.1875 L 1.78125 -4.1875 L 3.28125 -2.109375 L 3.28125 -3.015625 C 3.28125 -3.148438 3.257812 -3.234375 3.21875 -3.265625 C 3.1875 -3.304688 3.101562 -3.328125 2.96875 -3.328125 L 2.96875 -4.1875 L 4.65625 -4.1875 L 4.65625 -3.328125 C 4.53125 -3.328125 4.445312 -3.304688 4.40625 -3.265625 C 4.375 -3.234375 4.359375 -3.148438 4.359375 -3.015625 L 4.359375 0 L 3.125 0 L 1.625 -2.109375 L 1.625 -1.15625 C 1.625 -1.03125 1.640625 -0.945312 1.671875 -0.90625 C 1.710938 -0.875 1.796875 -0.859375 1.921875 -0.859375 L 1.921875 0 L 0.234375 0 L 0.234375 -0.859375 C 0.367188 -0.859375 0.453125 -0.875 0.484375 -0.90625 C 0.515625 -0.945312 0.53125 -1.03125 0.53125 -1.15625 L 0.53125 -3.296875 C 0.457031 -3.316406 0.359375 -3.328125 0.234375 -3.328125 Z M 0.234375 -3.328125 "/></g></g></g><g fill="#ffffff" fill-opacity="1"><g transform="translate(52.015148, 42.00574)"><g><path d="M 0.015625 -0.265625 L -0.484375 -1.359375 L 0.3125 -1.71875 C 0.488281 -1.59375 0.671875 -1.519531 0.859375 -1.5 C 1.046875 -1.488281 1.265625 -1.535156 1.515625 -1.640625 C 1.660156 -1.710938 1.75 -1.78125 1.78125 -1.84375 C 1.820312 -1.90625 1.828125 -1.984375 1.796875 -2.078125 C 1.765625 -2.148438 1.703125 -2.191406 1.609375 -2.203125 C 1.523438 -2.210938 1.414062 -2.210938 1.28125 -2.203125 L 0.40625 -2.0625 C 0.03125 -2.007812 -0.28125 -2.039062 -0.53125 -2.15625 C -0.78125 -2.269531 -0.976562 -2.484375 -1.125 -2.796875 C -1.289062 -3.179688 -1.285156 -3.519531 -1.109375 -3.8125 C -0.929688 -4.113281 -0.550781 -4.398438 0.03125 -4.671875 C 0.34375 -4.804688 0.625 -4.898438 0.875 -4.953125 C 1.132812 -5.015625 1.335938 -5.050781 1.484375 -5.0625 C 1.640625 -5.070312 1.71875 -5.078125 1.71875 -5.078125 L 2.203125 -4 L 1.40625 -3.65625 C 1.269531 -3.789062 1.109375 -3.863281 0.921875 -3.875 C 0.734375 -3.894531 0.53125 -3.851562 0.3125 -3.75 C 0.207031 -3.707031 0.128906 -3.65625 0.078125 -3.59375 C 0.0351562 -3.53125 0.03125 -3.457031 0.0625 -3.375 C 0.101562 -3.300781 0.15625 -3.242188 0.21875 -3.203125 C 0.28125 -3.171875 0.394531 -3.164062 0.5625 -3.1875 L 1.453125 -3.328125 C 1.847656 -3.390625 2.164062 -3.363281 2.40625 -3.25 C 2.65625 -3.144531 2.847656 -2.929688 2.984375 -2.609375 C 3.085938 -2.390625 3.125 -2.175781 3.09375 -1.96875 C 3.0625 -1.757812 2.941406 -1.546875 2.734375 -1.328125 C 2.523438 -1.117188 2.203125 -0.914062 1.765625 -0.71875 C 1.421875 -0.5625 1.113281 -0.453125 0.84375 -0.390625 C 0.582031 -0.328125 0.378906 -0.289062 0.234375 -0.28125 C 0.0859375 -0.269531 0.015625 -0.265625 0.015625 -0.265625 Z M 0.015625 -0.265625 "/></g></g></g><g fill="#ffffff" fill-opacity="1"><g transform="translate(58.609908, 38.278651)"><g><path d="M -0.28125 -5.875 L 0.859375 -4.828125 L 0.28125 -4.203125 C 0.132812 -4.335938 0.0234375 -4.421875 -0.046875 -4.453125 C -0.117188 -4.484375 -0.191406 -4.472656 -0.265625 -4.421875 C -0.335938 -4.378906 -0.4375 -4.289062 -0.5625 -4.15625 L -1.109375 -3.5625 L -0.625 -3.109375 L 0.109375 -3.90625 L 0.796875 -3.265625 L 0.0625 -2.46875 L 0.578125 -2.015625 L 1.125 -2.609375 C 1.25 -2.742188 1.328125 -2.847656 1.359375 -2.921875 C 1.398438 -3.003906 1.394531 -3.085938 1.34375 -3.171875 C 1.300781 -3.253906 1.210938 -3.351562 1.078125 -3.46875 L 1.65625 -4.09375 L 2.796875 -3.046875 L 1.265625 -1.375 L 0.734375 -0.8125 L 0.15625 -0.171875 L -0.46875 -0.75 C -0.375 -0.851562 -0.328125 -0.929688 -0.328125 -0.984375 C -0.335938 -1.035156 -0.382812 -1.101562 -0.46875 -1.1875 L -1.84375 -2.453125 C -1.945312 -2.535156 -2.023438 -2.578125 -2.078125 -2.578125 C -2.128906 -2.578125 -2.203125 -2.523438 -2.296875 -2.421875 L -2.921875 -3 L -2.34375 -3.640625 L -1.8125 -4.203125 Z M -0.28125 -5.875 "/></g></g></g><g fill="#ffffff" fill-opacity="1"><g transform="translate(32.159268, 17.265007)"><g><path d="M -2.734375 -1.90625 L -3.4375 -2.390625 L -2.28125 -4.125 L -1.578125 -3.640625 C -1.628906 -3.546875 -1.65625 -3.472656 -1.65625 -3.421875 C -1.664062 -3.378906 -1.644531 -3.335938 -1.59375 -3.296875 C -1.53125 -3.253906 -1.425781 -3.207031 -1.28125 -3.15625 L -0.578125 -2.859375 L -2.046875 -4.453125 L -1.46875 -5.3125 L 0.546875 -4.53125 L 0 -5.0625 C -0.0507812 -5.132812 -0.09375 -5.1875 -0.125 -5.21875 C -0.164062 -5.257812 -0.203125 -5.289062 -0.234375 -5.3125 C -0.285156 -5.351562 -0.332031 -5.359375 -0.375 -5.328125 C -0.425781 -5.304688 -0.484375 -5.253906 -0.546875 -5.171875 L -1.25 -5.65625 L -0.34375 -7 L 0.359375 -6.515625 C 0.285156 -6.398438 0.238281 -6.3125 0.21875 -6.25 C 0.207031 -6.1875 0.21875 -6.117188 0.25 -6.046875 C 0.289062 -5.984375 0.359375 -5.898438 0.453125 -5.796875 L 2.4375 -3.625 L 1.859375 -2.78125 L -0.1875 -3.53125 L 1.296875 -1.9375 L 0.71875 -1.078125 L -2.03125 -2.09375 C -2.164062 -2.132812 -2.269531 -2.160156 -2.34375 -2.171875 C -2.414062 -2.179688 -2.476562 -2.164062 -2.53125 -2.125 C -2.59375 -2.082031 -2.660156 -2.007812 -2.734375 -1.90625 Z M -2.734375 -1.90625 "/></g></g></g><g fill="#ffffff" fill-opacity="1"><g transform="translate(37.682601, 10.749871)"><g><path d="M -1.234375 -4.046875 L 0.890625 -5.0625 L 2.84375 -2.828125 C 2.957031 -2.734375 3.046875 -2.660156 3.109375 -2.609375 C 3.179688 -2.566406 3.242188 -2.550781 3.296875 -2.5625 C 3.359375 -2.570312 3.4375 -2.597656 3.53125 -2.640625 L 3.90625 -1.859375 L 2.015625 -0.953125 L 1.640625 -1.734375 C 1.722656 -1.773438 1.78125 -1.8125 1.8125 -1.84375 C 1.84375 -1.882812 1.84375 -1.929688 1.8125 -1.984375 C 1.789062 -2.035156 1.71875 -2.128906 1.59375 -2.265625 L 1.546875 -2.296875 L 0.984375 -2.03125 L 1.015625 -2 C 1.015625 -1.894531 1.019531 -1.8125 1.03125 -1.75 C 1.050781 -1.695312 1.066406 -1.65625 1.078125 -1.625 C 1.109375 -1.5625 1.144531 -1.53125 1.1875 -1.53125 C 1.226562 -1.539062 1.289062 -1.566406 1.375 -1.609375 L 1.75 -0.828125 L 0.0625 -0.03125 L -0.3125 -0.8125 C -0.21875 -0.851562 -0.144531 -0.894531 -0.09375 -0.9375 C -0.0507812 -0.976562 -0.0234375 -1.035156 -0.015625 -1.109375 C -0.015625 -1.191406 -0.0234375 -1.304688 -0.046875 -1.453125 L -0.390625 -3.46875 C -0.453125 -3.4375 -0.523438 -3.40625 -0.609375 -3.375 C -0.703125 -3.34375 -0.789062 -3.304688 -0.875 -3.265625 Z M 0.703125 -3.40625 L 0.859375 -2.6875 L 1.15625 -2.828125 L 0.859375 -3.21875 C 0.835938 -3.257812 0.8125 -3.289062 0.78125 -3.3125 C 0.757812 -3.34375 0.734375 -3.375 0.703125 -3.40625 Z M 0.703125 -3.40625 "/></g></g></g><g fill="#ffffff" fill-opacity="1"><g transform="translate(44.635833, 8.304273)"><g><path d="M 0.265625 -4.1875 L 3.9375 -4.046875 L 3.875 -2.421875 L 3.078125 -2.453125 C 3.085938 -2.609375 3.082031 -2.726562 3.0625 -2.8125 C 3.050781 -2.894531 3.019531 -2.957031 2.96875 -3 C 2.914062 -3.039062 2.832031 -3.0625 2.71875 -3.0625 L 2.65625 -1.0625 C 2.644531 -0.9375 2.65625 -0.851562 2.6875 -0.8125 C 2.71875 -0.78125 2.796875 -0.757812 2.921875 -0.75 L 2.890625 0.109375 L 0.984375 0.03125 L 1.015625 -0.828125 C 1.140625 -0.816406 1.21875 -0.828125 1.25 -0.859375 C 1.289062 -0.898438 1.316406 -0.984375 1.328125 -1.109375 L 1.390625 -3.109375 C 1.222656 -3.109375 1.113281 -3.070312 1.0625 -3 C 1.019531 -2.925781 0.992188 -2.769531 0.984375 -2.53125 L 0.203125 -2.5625 Z M 0.265625 -4.1875 "/></g></g></g><g fill="#ffffff" fill-opacity="1"><g transform="translate(51.461618, 9.228214)"><g><path d="M 5.671875 -1.609375 L 4.90625 -0.265625 L 4.15625 -0.6875 C 4.25 -0.851562 4.304688 -0.976562 4.328125 -1.0625 C 4.347656 -1.144531 4.328125 -1.210938 4.265625 -1.265625 C 4.203125 -1.328125 4.085938 -1.40625 3.921875 -1.5 L 3.21875 -1.90625 L 2.890625 -1.328125 L 3.84375 -0.78125 L 3.375 0.03125 L 2.421875 -0.515625 L 2.078125 0.09375 L 2.78125 0.5 C 2.945312 0.59375 3.070312 0.644531 3.15625 0.65625 C 3.25 0.675781 3.328125 0.65625 3.390625 0.59375 C 3.453125 0.53125 3.53125 0.421875 3.625 0.265625 L 4.375 0.6875 L 3.609375 2.03125 L 1.625 0.90625 L 0.953125 0.53125 L 0.203125 0.109375 L 0.625 -0.640625 C 0.738281 -0.566406 0.816406 -0.535156 0.859375 -0.546875 C 0.910156 -0.566406 0.96875 -0.628906 1.03125 -0.734375 L 1.953125 -2.359375 C 2.015625 -2.472656 2.039062 -2.554688 2.03125 -2.609375 C 2.019531 -2.660156 1.957031 -2.722656 1.84375 -2.796875 L 2.265625 -3.53125 L 3.015625 -3.109375 L 3.6875 -2.734375 Z M 5.671875 -1.609375 "/></g></g></g><g fill="#ffffff" fill-opacity="1"><g transform="translate(57.390592, 13.385557)"><g><path d="M 3.125 3.375 L 2.390625 3.828125 C 2.390625 3.828125 2.347656 3.78125 2.265625 3.6875 C 2.191406 3.59375 2.085938 3.441406 1.953125 3.234375 C 1.785156 2.960938 1.703125 2.722656 1.703125 2.515625 C 1.710938 2.316406 1.804688 2.128906 1.984375 1.953125 L 2.484375 1.421875 C 2.546875 1.359375 2.578125 1.285156 2.578125 1.203125 C 2.585938 1.128906 2.550781 1.03125 2.46875 0.90625 L 2.34375 0.71875 L 1.96875 0.96875 C 1.863281 1.03125 1.804688 1.085938 1.796875 1.140625 C 1.785156 1.191406 1.8125 1.269531 1.875 1.375 L 1.140625 1.828125 L 0.125 0.203125 L 0.859375 -0.25 C 0.929688 -0.132812 0.992188 -0.0703125 1.046875 -0.0625 C 1.097656 -0.0507812 1.175781 -0.078125 1.28125 -0.140625 L 2.859375 -1.125 C 2.972656 -1.195312 3.035156 -1.257812 3.046875 -1.3125 C 3.054688 -1.363281 3.023438 -1.445312 2.953125 -1.5625 L 3.671875 -2.015625 L 4.328125 -0.96875 L 4.53125 -0.640625 L 4.984375 0.078125 C 5.242188 0.484375 5.351562 0.835938 5.3125 1.140625 C 5.28125 1.441406 5.082031 1.707031 4.71875 1.9375 C 4.300781 2.195312 3.925781 2.226562 3.59375 2.03125 C 3.5625 2.09375 3.53125 2.15625 3.5 2.21875 C 3.46875 2.289062 3.421875 2.347656 3.359375 2.390625 L 3.09375 2.71875 C 3.03125 2.769531 2.984375 2.820312 2.953125 2.875 C 2.929688 2.925781 2.9375 2.988281 2.96875 3.0625 C 3 3.144531 3.050781 3.25 3.125 3.375 Z M 3.71875 -0.140625 L 3.15625 0.21875 L 3.453125 0.6875 C 3.523438 0.800781 3.597656 0.875 3.671875 0.90625 C 3.753906 0.9375 3.847656 0.921875 3.953125 0.859375 C 4.066406 0.785156 4.125 0.707031 4.125 0.625 C 4.125 0.539062 4.085938 0.441406 4.015625 0.328125 Z M 3.71875 -0.140625 "/></g></g></g><g clip-path="url(#0990cdf70c)"><g clip-path="url(#db7bb24bbe)"><path fill="#0093c1" d="M 32.777344 10.148438 L 59.261719 10.148438 L 59.261719 36.636719 L 32.777344 36.636719 Z M 32.777344 10.148438 " fill-opacity="1" fill-rule="nonzero"/></g></g><g clip-path="url(#514d3a9f6d)"><g clip-path="url(#0cb13218c6)"><path stroke-linecap="butt" transform="matrix(0.734694, 0, 0, 0.734694, 32.77736, 10.149981)" fill="none" stroke-linejoin="miter" d="M 18.024068 -0.0021014 C 8.070942 -0.0021014 -0.0000215 8.068862 -0.0000215 18.021988 C -0.0000215 27.975113 8.070942 36.046077 18.024068 36.046077 C 27.977193 36.046077 36.048157 27.975113 36.048157 18.021988 C 36.048157 8.068862 27.977193 -0.0021014 18.024068 -0.0021014 Z M 18.024068 -0.0021014 " stroke="#fef6d9" stroke-width="2" stroke-opacity="1" stroke-miterlimit="4"/></g></g><g clip-path="url(#9461279072)"><g clip-path="url(#f40d3c7d36)"><path fill="#ffffff" d="M 34.617188 11.988281 L 57.421875 11.988281 L 57.421875 34.796875 L 34.617188 34.796875 Z M 34.617188 11.988281 " fill-opacity="1" fill-rule="nonzero"/></g></g><g clip-path="url(#9f42a3a148)"><path fill="#3dbfea" d="M 47.996094 32.878906 C 48.019531 32.882812 48.042969 32.875 48.058594 32.859375 C 48.179688 32.746094 48.007812 32.175781 47.632812 30.898438 C 47.632812 30.898438 47.351562 29.945312 47.089844 29.046875 C 46.953125 28.574219 46.84375 28.1875 46.773438 27.933594 C 46.832031 28.191406 46.921875 28.582031 47.023438 29.066406 C 47.097656 29.390625 47.210938 29.910156 47.433594 30.949219 C 47.714844 32.25 47.835938 32.832031 47.992188 32.878906 Z M 52.734375 30.804688 C 52.757812 30.796875 52.777344 30.78125 52.78125 30.753906 C 52.828125 30.597656 52.394531 30.1875 51.425781 29.269531 C 51.425781 29.269531 50.707031 28.582031 50.03125 27.9375 C 49.675781 27.59375 49.386719 27.3125 49.195312 27.132812 C 49.375 27.324219 49.648438 27.621094 49.980469 27.984375 C 50.207031 28.230469 50.566406 28.621094 51.28125 29.410156 C 52.175781 30.402344 52.574219 30.84375 52.734375 30.804688 Z M 55.4375 26.152344 C 55.453125 26.136719 55.460938 26.113281 55.453125 26.089844 C 55.414062 25.929688 54.832031 25.792969 53.535156 25.476562 C 53.535156 25.476562 52.566406 25.242188 51.65625 25.019531 C 51.175781 24.898438 50.785156 24.800781 50.53125 24.738281 C 50.78125 24.8125 51.167969 24.933594 51.636719 25.082031 C 51.957031 25.1875 52.464844 25.347656 53.480469 25.675781 C 54.75 26.085938 55.316406 26.269531 55.4375 26.15625 Z M 36.472656 25.875 C 36.464844 25.898438 36.472656 25.921875 36.488281 25.941406 C 36.601562 26.058594 37.175781 25.890625 38.457031 25.515625 C 38.457031 25.515625 39.414062 25.234375 40.3125 24.972656 C 40.789062 24.835938 41.175781 24.726562 41.429688 24.65625 C 41.171875 24.714844 40.78125 24.804688 40.296875 24.90625 C 39.96875 24.980469 39.449219 25.089844 38.40625 25.3125 C 37.101562 25.597656 36.515625 25.71875 36.472656 25.875 Z M 39.042969 30.597656 C 39.046875 30.621094 39.066406 30.640625 39.089844 30.648438 C 39.25 30.691406 39.660156 30.261719 40.582031 29.296875 C 40.582031 29.296875 41.273438 28.578125 41.921875 27.902344 C 42.265625 27.550781 42.546875 27.261719 42.730469 27.074219 C 42.535156 27.25 42.238281 27.523438 41.875 27.855469 C 41.625 28.082031 41.230469 28.4375 40.441406 29.148438 C 39.445312 30.042969 39 30.441406 39.042969 30.597656 Z M 43.707031 32.800781 C 43.722656 32.820312 43.746094 32.828125 43.769531 32.820312 C 43.929688 32.78125 44.070312 32.203125 44.386719 30.90625 C 44.386719 30.90625 44.621094 29.941406 44.847656 29.035156 C 44.964844 28.558594 45.0625 28.167969 45.128906 27.914062 C 45.050781 28.164062 44.933594 28.546875 44.78125 29.015625 C 44.679688 29.335938 44.515625 29.84375 44.191406 30.851562 C 43.773438 32.121094 43.589844 32.683594 43.703125 32.800781 Z M 51.183594 32.96875 C 51.210938 32.96875 51.238281 32.953125 51.253906 32.929688 C 51.351562 32.757812 50.972656 32.15625 50.121094 30.804688 C 50.121094 30.804688 49.488281 29.796875 48.898438 28.84375 C 48.585938 28.34375 48.332031 27.933594 48.167969 27.664062 C 48.320312 27.9375 48.546875 28.363281 48.828125 28.882812 C 49.015625 29.238281 49.316406 29.800781 49.910156 30.925781 C 50.65625 32.339844 50.988281 32.96875 51.183594 32.96875 Z M 55.363281 28.867188 C 55.386719 28.851562 55.402344 28.824219 55.402344 28.796875 C 55.402344 28.597656 54.773438 28.269531 53.359375 27.523438 C 53.359375 27.523438 52.308594 26.964844 51.320312 26.4375 C 50.796875 26.160156 50.375 25.933594 50.097656 25.78125 C 50.367188 25.945312 50.777344 26.199219 51.277344 26.511719 C 51.621094 26.722656 52.160156 27.058594 53.238281 27.734375 C 54.589844 28.582031 55.195312 28.964844 55.363281 28.867188 Z M 36.636719 28.800781 C 36.636719 28.832031 36.652344 28.859375 36.675781 28.875 C 36.847656 28.972656 37.449219 28.589844 38.800781 27.742188 C 38.800781 27.742188 39.8125 27.109375 40.761719 26.515625 C 41.261719 26.203125 41.671875 25.953125 41.941406 25.789062 C 41.667969 25.9375 41.242188 26.167969 40.722656 26.445312 C 40.367188 26.632812 39.804688 26.933594 38.679688 27.527344 C 37.269531 28.273438 36.636719 28.605469 36.636719 28.800781 Z M 40.789062 32.933594 C 40.804688 32.957031 40.832031 32.972656 40.859375 32.972656 C 41.054688 32.972656 41.386719 32.34375 42.132812 30.929688 C 42.132812 30.929688 42.691406 29.878906 43.214844 28.890625 C 43.492188 28.367188 43.722656 27.945312 43.875 27.667969 C 43.710938 27.9375 43.457031 28.347656 43.144531 28.847656 C 42.933594 29.191406 42.597656 29.730469 41.921875 30.808594 C 41.074219 32.160156 40.691406 32.761719 40.789062 32.933594 Z M 45.980469 34.277344 C 46.007812 34.292969 46.039062 34.292969 46.0625 34.277344 C 46.234375 34.179688 46.203125 33.46875 46.144531 31.871094 C 46.144531 31.871094 46.101562 30.679688 46.0625 29.5625 C 46.042969 28.972656 46.03125 28.488281 46.023438 28.175781 C 46.015625 28.488281 46 28.972656 45.980469 29.5625 C 45.96875 29.960938 45.945312 30.597656 45.898438 31.871094 C 45.839844 33.46875 45.808594 34.179688 45.980469 34.277344 Z M 47.992188 13.90625 C 48.015625 13.898438 48.042969 13.902344 48.058594 13.917969 C 48.179688 14.035156 48.007812 14.605469 47.632812 15.882812 C 47.632812 15.882812 47.351562 16.835938 47.089844 17.734375 C 46.953125 18.207031 46.84375 18.59375 46.773438 18.84375 C 46.832031 18.589844 46.921875 18.195312 47.023438 17.714844 C 47.097656 17.390625 47.210938 16.871094 47.433594 15.832031 C 47.714844 14.53125 47.835938 13.949219 47.992188 13.90625 Z M 52.734375 15.976562 C 52.757812 15.984375 52.777344 16 52.78125 16.027344 C 52.828125 16.183594 52.394531 16.59375 51.425781 17.511719 C 51.425781 17.511719 50.707031 18.199219 50.03125 18.84375 C 49.675781 19.1875 49.386719 19.464844 49.195312 19.648438 C 49.375 19.457031 49.648438 19.160156 49.980469 18.796875 C 50.207031 18.550781 50.566406 18.160156 51.28125 17.371094 C 52.175781 16.378906 52.574219 15.9375 52.734375 15.976562 Z M 55.4375 20.625 C 55.453125 20.644531 55.460938 20.667969 55.453125 20.691406 C 55.414062 20.851562 54.832031 20.988281 53.535156 21.304688 C 53.535156 21.304688 52.566406 21.539062 51.65625 21.761719 C 51.175781 21.878906 50.785156 21.980469 50.53125 22.042969 C 50.78125 21.964844 51.167969 21.847656 51.636719 21.695312 C 51.957031 21.59375 52.464844 21.433594 53.480469 21.105469 C 54.75 20.695312 55.316406 20.511719 55.4375 20.625 Z M 36.472656 20.90625 C 36.464844 20.882812 36.472656 20.855469 36.488281 20.839844 C 36.601562 20.722656 37.175781 20.890625 38.457031 21.265625 C 38.457031 21.265625 39.414062 21.546875 40.3125 21.804688 C 40.789062 21.941406 41.175781 22.050781 41.429688 22.121094 C 41.171875 22.0625 40.78125 21.972656 40.296875 21.871094 C 39.96875 21.800781 39.449219 21.6875 38.40625 21.464844 C 37.101562 21.183594 36.515625 21.0625 36.472656 20.90625 Z M 39.042969 16.183594 C 39.046875 16.160156 39.066406 16.140625 39.089844 16.132812 C 39.25 16.089844 39.660156 16.519531 40.582031 17.484375 C 40.582031 17.484375 41.273438 18.203125 41.921875 18.875 C 42.265625 19.230469 42.546875 19.519531 42.730469 19.707031 C 42.535156 19.527344 42.238281 19.257812 41.875 18.925781 C 41.625 18.699219 41.230469 18.34375 40.441406 17.632812 C 39.445312 16.738281 39 16.339844 39.042969 16.183594 Z M 43.707031 13.980469 C 43.722656 13.960938 43.746094 13.953125 43.769531 13.960938 C 43.929688 14 44.070312 14.578125 44.386719 15.875 C 44.386719 15.875 44.621094 16.839844 44.847656 17.746094 C 44.964844 18.222656 45.0625 18.613281 45.128906 18.867188 C 45.050781 18.617188 44.933594 18.234375 44.78125 17.765625 C 44.679688 17.445312 44.515625 16.941406 44.191406 15.929688 C 43.773438 14.660156 43.589844 14.097656 43.703125 13.980469 Z M 51.183594 13.8125 C 51.210938 13.8125 51.238281 13.828125 51.253906 13.851562 C 51.351562 14.023438 50.972656 14.625 50.121094 15.976562 C 50.121094 15.976562 49.488281 16.984375 48.898438 17.9375 C 48.585938 18.4375 48.332031 18.847656 48.167969 19.117188 C 48.320312 18.839844 48.546875 18.417969 48.828125 17.898438 C 49.015625 17.542969 49.316406 16.980469 49.910156 15.855469 C 50.65625 14.441406 50.988281 13.8125 51.183594 13.8125 Z M 55.363281 17.914062 C 55.386719 17.929688 55.402344 17.957031 55.402344 17.984375 C 55.402344 18.183594 54.773438 18.511719 53.359375 19.257812 C 53.359375 19.257812 52.308594 19.816406 51.320312 20.34375 C 50.796875 20.621094 50.375 20.847656 50.097656 21 C 50.367188 20.835938 50.777344 20.582031 51.277344 20.269531 C 51.621094 20.058594 52.160156 19.722656 53.238281 19.046875 C 54.589844 18.199219 55.195312 17.816406 55.363281 17.914062 Z M 57.398438 23.351562 C 57.410156 23.378906 57.410156 23.410156 57.398438 23.433594 C 57.296875 23.605469 56.585938 23.574219 54.988281 23.515625 C 54.988281 23.515625 53.800781 23.472656 52.679688 23.433594 C 52.089844 23.414062 51.609375 23.402344 51.292969 23.394531 C 51.609375 23.386719 52.089844 23.375 52.679688 23.351562 C 53.082031 23.339844 53.71875 23.320312 54.988281 23.273438 C 56.585938 23.210938 57.296875 23.183594 57.398438 23.351562 Z M 34.640625 23.425781 C 34.625 23.402344 34.625 23.371094 34.640625 23.34375 C 34.738281 23.175781 35.449219 23.203125 37.046875 23.265625 C 37.046875 23.265625 38.238281 23.308594 39.359375 23.34375 C 39.949219 23.367188 40.429688 23.378906 40.746094 23.386719 C 40.429688 23.394531 39.949219 23.40625 39.359375 23.425781 C 38.957031 23.441406 38.320312 23.460938 37.050781 23.507812 C 35.449219 23.570312 34.738281 23.597656 34.640625 23.425781 Z M 36.636719 17.980469 C 36.636719 17.953125 36.652344 17.925781 36.675781 17.910156 C 36.847656 17.8125 37.449219 18.195312 38.800781 19.042969 C 38.800781 19.042969 39.8125 19.675781 40.761719 20.269531 C 41.261719 20.578125 41.671875 20.832031 41.941406 20.996094 C 41.667969 20.847656 41.242188 20.617188 40.722656 20.339844 C 40.367188 20.148438 39.804688 19.851562 38.679688 19.257812 C 37.269531 18.507812 36.636719 18.175781 36.636719 17.980469 Z M 40.789062 13.847656 C 40.804688 13.824219 40.832031 13.808594 40.859375 13.808594 C 41.054688 13.808594 41.386719 14.4375 42.132812 15.851562 C 42.132812 15.851562 42.691406 16.902344 43.214844 17.894531 C 43.492188 18.414062 43.722656 18.835938 43.875 19.113281 C 43.710938 18.84375 43.457031 18.433594 43.144531 17.933594 C 42.933594 17.589844 42.597656 17.050781 41.921875 15.972656 C 41.074219 14.621094 40.691406 14.019531 40.789062 13.847656 Z M 45.980469 12.503906 C 46.007812 12.488281 46.039062 12.488281 46.0625 12.503906 C 46.234375 12.601562 46.203125 13.3125 46.144531 14.910156 C 46.144531 14.910156 46.101562 16.101562 46.0625 17.222656 C 46.042969 17.8125 46.03125 18.292969 46.023438 18.609375 C 46.015625 18.292969 46 17.8125 45.980469 17.222656 C 45.96875 16.820312 45.945312 16.183594 45.898438 14.914062 C 45.839844 13.3125 45.808594 12.601562 45.980469 12.503906 " fill-opacity="1" fill-rule="nonzero"/></g><g clip-path="url(#a5ac92af63)"><path fill="#3dbfea" d="M 45.558594 32.777344 C 44.582031 32.777344 43.648438 32.640625 42.785156 32.378906 C 40.8125 31.777344 39.070312 30.433594 38.003906 28.695312 C 37.5625 27.976562 37.230469 27.191406 37.023438 26.359375 C 36.53125 24.390625 36.777344 22.207031 37.707031 20.371094 C 38.140625 19.503906 38.722656 18.726562 39.433594 18.058594 C 39.789062 17.722656 40.175781 17.421875 40.578125 17.160156 C 40.792969 17.019531 41.015625 16.890625 41.238281 16.777344 C 41.3125 16.738281 41.398438 16.707031 41.488281 16.675781 C 41.539062 16.65625 41.621094 16.625 41.664062 16.605469 C 41.765625 16.511719 41.898438 16.460938 42.035156 16.460938 C 42.152344 16.460938 42.273438 16.5 42.375 16.582031 C 42.605469 16.765625 42.640625 17.101562 42.453125 17.332031 C 41.765625 18.164062 41.371094 19.261719 41.375 20.335938 C 41.382812 21.410156 41.785156 22.503906 42.480469 23.332031 C 42.679688 23.570312 42.882812 23.757812 43.085938 23.890625 C 43.226562 22.800781 43.535156 21.835938 44.007812 21.019531 C 44.695312 19.820312 45.773438 18.921875 46.964844 18.546875 C 47.019531 18.53125 47.074219 18.523438 47.128906 18.523438 C 47.308594 18.523438 47.480469 18.613281 47.582031 18.769531 C 47.714844 18.972656 47.691406 19.238281 47.527344 19.414062 C 46.464844 20.570312 46.484375 22.597656 47.570312 23.933594 C 48.453125 25.015625 49.941406 25.660156 51.558594 25.660156 C 51.789062 25.660156 52.023438 25.644531 52.25 25.617188 C 53.421875 25.480469 54.421875 25.019531 55.058594 24.324219 C 55.164062 24.210938 55.3125 24.144531 55.464844 24.144531 C 55.535156 24.144531 55.601562 24.160156 55.664062 24.183594 C 55.875 24.269531 56.015625 24.46875 56.007812 24.691406 C 55.945312 26.464844 55.101562 28.273438 53.691406 29.652344 C 52.480469 30.835938 50.828125 31.746094 48.914062 32.289062 C 47.769531 32.613281 46.640625 32.777344 45.558594 32.777344 Z M 45.558594 32.777344 " fill-opacity="1" fill-rule="nonzero"/></g><g clip-path="url(#5fae2886b4)"><path fill="#003f67" d="M 42.035156 16.996094 C 41.261719 17.929688 40.832031 19.132812 40.835938 20.339844 C 40.839844 21.542969 41.28125 22.742188 42.0625 23.671875 C 42.453125 24.136719 42.957031 24.546875 43.558594 24.644531 C 43.628906 23.476562 43.890625 22.300781 44.476562 21.28125 C 45.0625 20.261719 45.996094 19.410156 47.128906 19.058594 C 45.839844 20.457031 45.949219 22.792969 47.148438 24.265625 C 48.191406 25.546875 49.886719 26.191406 51.558594 26.191406 C 51.8125 26.191406 52.066406 26.175781 52.316406 26.148438 C 53.492188 26.007812 54.664062 25.546875 55.460938 24.683594 C 55.460938 24.679688 55.464844 24.675781 55.464844 24.675781 C 55.40625 26.402344 54.554688 28.054688 53.308594 29.273438 C 52.066406 30.492188 50.449219 31.300781 48.761719 31.777344 C 47.722656 32.070312 46.636719 32.242188 45.558594 32.242188 C 44.671875 32.242188 43.789062 32.128906 42.945312 31.867188 C 41.09375 31.304688 39.46875 30.050781 38.464844 28.417969 C 38.050781 27.742188 37.742188 27 37.550781 26.230469 C 37.082031 24.375 37.324219 22.320312 38.191406 20.605469 C 38.597656 19.800781 39.148438 19.066406 39.808594 18.445312 C 40.136719 18.132812 40.496094 17.851562 40.878906 17.605469 C 41.074219 17.476562 41.28125 17.359375 41.488281 17.25 C 41.621094 17.179688 41.945312 17.101562 42.035156 16.996094 M 55.464844 24.675781 L 55.464844 24.675781 M 42.035156 15.929688 C 41.800781 15.929688 41.570312 16.003906 41.378906 16.144531 C 41.355469 16.15625 41.324219 16.164062 41.300781 16.175781 C 41.199219 16.210938 41.09375 16.25 40.984375 16.304688 C 40.746094 16.429688 40.511719 16.566406 40.28125 16.714844 C 39.851562 16.992188 39.441406 17.316406 39.0625 17.671875 C 38.304688 18.382812 37.6875 19.210938 37.222656 20.132812 C 36.238281 22.082031 35.976562 24.398438 36.5 26.488281 C 36.71875 27.371094 37.070312 28.207031 37.539062 28.972656 C 38.675781 30.820312 40.53125 32.246094 42.625 32.886719 C 43.539062 33.167969 44.527344 33.308594 45.558594 33.308594 C 46.691406 33.308594 47.871094 33.136719 49.0625 32.800781 C 51.066406 32.234375 52.796875 31.277344 54.070312 30.03125 C 55.570312 28.5625 56.472656 26.632812 56.546875 24.734375 C 56.546875 24.714844 56.546875 24.695312 56.546875 24.675781 C 56.546875 24.105469 56.097656 23.640625 55.53125 23.609375 C 55.507812 23.609375 55.488281 23.609375 55.464844 23.609375 C 55.445312 23.609375 55.425781 23.609375 55.40625 23.609375 C 55.183594 23.621094 54.980469 23.699219 54.8125 23.824219 C 54.765625 23.859375 54.722656 23.898438 54.679688 23.941406 C 54.671875 23.949219 54.667969 23.957031 54.660156 23.964844 L 54.65625 23.96875 C 54.105469 24.566406 53.230469 24.964844 52.1875 25.089844 C 51.980469 25.113281 51.769531 25.125 51.558594 25.125 C 50.105469 25.125 48.769531 24.554688 47.992188 23.597656 C 47.082031 22.480469 47.050781 20.726562 47.929688 19.773438 C 48.257812 19.417969 48.300781 18.886719 48.039062 18.480469 C 47.835938 18.167969 47.488281 17.992188 47.128906 17.992188 C 47.019531 17.992188 46.910156 18.007812 46.800781 18.039062 C 45.484375 18.453125 44.292969 19.441406 43.539062 20.757812 C 43.1875 21.363281 42.921875 22.046875 42.738281 22.792969 C 42.21875 22.085938 41.921875 21.203125 41.917969 20.332031 C 41.914062 19.378906 42.261719 18.40625 42.871094 17.667969 C 43.25 17.210938 43.179688 16.539062 42.714844 16.167969 C 42.515625 16.007812 42.273438 15.929688 42.035156 15.929688 Z M 42.035156 18.0625 Z M 42.035156 18.0625 " fill-opacity="1" fill-rule="nonzero"/></g><path fill="#b1deef" d="M 37.988281 25.082031 C 37.988281 22.683594 39.320312 20.039062 41.078125 18.675781 C 41.277344 18.09375 41.605469 17.535156 42.09375 17.039062 C 39.554688 17.601562 37.277344 21.160156 37.277344 24.304688 C 37.277344 26.511719 38.214844 28.523438 39.714844 29.96875 C 38.636719 28.617188 37.988281 26.917969 37.988281 25.082031 Z M 37.988281 25.082031 " fill-opacity="1" fill-rule="nonzero"/><path fill="#b1deef" d="M 48.394531 25.746094 C 49.671875 26.730469 53.050781 27.625 55.234375 26.230469 C 55.445312 25.585938 55.5 25.027344 55.421875 24.648438 C 53.457031 27.066406 49.332031 26.144531 47.78125 25.039062 C 47.984375 25.351562 48.199219 25.597656 48.394531 25.746094 Z M 48.394531 25.746094 " fill-opacity="1" fill-rule="nonzero"/><path fill="#b1deef" d="M 42.550781 24.171875 C 43.019531 24.835938 43.601562 25.300781 44.183594 25.433594 C 44.226562 25.433594 44.269531 25.433594 44.3125 25.433594 C 44.308594 25.347656 44.308594 25.257812 44.308594 25.171875 C 44.308594 23.550781 45.128906 21.785156 46.261719 20.726562 C 46.375 20.128906 46.644531 19.550781 47.136719 19.046875 C 45.269531 19.464844 43.59375 22.078125 43.59375 24.390625 C 43.59375 24.480469 43.597656 24.566406 43.601562 24.652344 C 43.558594 24.652344 43.515625 24.652344 43.472656 24.652344 C 43.160156 24.582031 42.84375 24.414062 42.550781 24.171875 Z M 42.550781 24.171875 " fill-opacity="1" fill-rule="nonzero"/><path fill="#0093c1" d="M 55.246094 24.851562 C 54.480469 27.25 51.546875 30.898438 45.320312 30.898438 C 41.148438 30.898438 37.675781 27.695312 37.308594 23.664062 C 37.289062 23.878906 37.277344 24.09375 37.277344 24.304688 C 37.277344 28.65625 40.910156 32.234375 45.320312 32.234375 C 53.171875 32.234375 55.789062 26.441406 55.421875 24.648438 C 55.367188 24.71875 55.308594 24.785156 55.246094 24.851562 Z M 55.246094 24.851562 " fill-opacity="1" fill-rule="nonzero"/><path fill="#3dbfea" d="M 49.457031 23.152344 C 49.441406 23.152344 49.421875 23.152344 49.402344 23.152344 C 49.144531 23.125 48.945312 22.921875 48.917969 22.671875 C 48.59375 19.277344 50.378906 17.289062 51.683594 17.011719 C 51.914062 16.960938 52.152344 16.9375 52.382812 16.9375 C 53.421875 16.9375 54.207031 17.464844 54.335938 18.25 C 54.539062 19.480469 53.355469 20.152344 52.214844 20.796875 C 51.246094 21.347656 50.242188 21.917969 49.972656 22.777344 C 49.90625 23.003906 49.691406 23.152344 49.457031 23.152344 Z M 49.457031 23.152344 " fill-opacity="1" fill-rule="nonzero"/><path fill="#003f67" d="M 52.382812 17.46875 C 53.140625 17.46875 53.71875 17.820312 53.800781 18.335938 C 54.082031 20.046875 50.125 20.46875 49.457031 22.621094 C 49.144531 19.324219 50.886719 17.726562 51.796875 17.535156 C 52 17.488281 52.195312 17.46875 52.382812 17.46875 M 52.382812 16.402344 C 52.113281 16.402344 51.839844 16.433594 51.5625 16.492188 C 50.714844 16.675781 49.84375 17.375 49.242188 18.363281 C 48.738281 19.1875 48.179688 20.613281 48.382812 22.71875 C 48.429688 23.226562 48.835938 23.628906 49.347656 23.679688 C 49.382812 23.683594 49.421875 23.6875 49.457031 23.6875 C 49.929688 23.6875 50.351562 23.382812 50.492188 22.933594 C 50.695312 22.273438 51.605469 21.757812 52.484375 21.261719 C 53.066406 20.929688 53.613281 20.621094 54.054688 20.222656 C 54.882812 19.472656 54.957031 18.691406 54.871094 18.164062 C 54.777344 17.605469 54.4375 17.121094 53.914062 16.800781 C 53.484375 16.539062 52.957031 16.402344 52.382812 16.402344 Z M 52.382812 16.402344 " fill-opacity="1" fill-rule="nonzero"/><path fill="#b1deef" d="M 52.0625 18.0625 C 52.804688 17.898438 53.457031 18.050781 53.808594 18.386719 C 53.808594 18.371094 53.804688 18.355469 53.800781 18.335938 C 53.695312 17.695312 52.828125 17.308594 51.796875 17.535156 C 50.886719 17.726562 49.144531 19.324219 49.457031 22.621094 C 49.515625 22.4375 49.59375 22.269531 49.691406 22.109375 C 49.789062 19.515625 51.253906 18.230469 52.0625 18.0625 Z M 52.0625 18.0625 " fill-opacity="1" fill-rule="nonzero"/><path fill="#3dbfea" d="M 44.476562 18.195312 C 44.429688 18.195312 44.382812 18.191406 44.339844 18.179688 C 44.089844 18.113281 43.921875 17.882812 43.9375 17.628906 C 44.097656 15.238281 45.542969 14.089844 46.523438 14.039062 C 46.570312 14.039062 46.617188 14.035156 46.667969 14.035156 C 47.609375 14.035156 48.320312 14.582031 48.320312 15.304688 C 48.324219 16.253906 47.378906 16.609375 46.542969 16.921875 C 45.882812 17.167969 45.199219 17.425781 44.960938 17.898438 C 44.871094 18.085938 44.679688 18.195312 44.476562 18.195312 Z M 44.476562 18.195312 " fill-opacity="1" fill-rule="nonzero"/><g clip-path="url(#6a8315ef6c)"><path fill="#003f67" d="M 46.667969 14.570312 C 47.3125 14.570312 47.78125 14.898438 47.78125 15.304688 C 47.785156 16.453125 45.144531 16.324219 44.476562 17.664062 C 44.621094 15.472656 45.933594 14.605469 46.550781 14.574219 C 46.589844 14.570312 46.628906 14.570312 46.667969 14.570312 M 46.667969 13.503906 C 46.609375 13.503906 46.550781 13.503906 46.488281 13.507812 C 45.3125 13.574219 43.578125 14.882812 43.398438 17.59375 C 43.363281 18.101562 43.699219 18.5625 44.199219 18.695312 C 44.292969 18.71875 44.386719 18.730469 44.476562 18.730469 C 44.882812 18.730469 45.261719 18.503906 45.449219 18.132812 C 45.589844 17.847656 46.222656 17.613281 46.734375 17.421875 C 47.152344 17.265625 47.582031 17.101562 47.945312 16.867188 C 48.703125 16.371094 48.863281 15.742188 48.863281 15.304688 C 48.859375 14.277344 47.917969 13.503906 46.667969 13.503906 Z M 46.667969 13.503906 " fill-opacity="1" fill-rule="nonzero"/></g><path fill="#b1deef" d="M 46.671875 14.945312 C 47.171875 14.914062 47.585938 15.082031 47.78125 15.339844 C 47.78125 15.328125 47.78125 15.316406 47.78125 15.304688 C 47.78125 14.875 47.253906 14.53125 46.550781 14.574219 C 45.933594 14.605469 44.621094 15.472656 44.476562 17.664062 C 44.535156 17.550781 44.605469 17.449219 44.6875 17.355469 C 45.023438 15.664062 46.121094 14.972656 46.671875 14.945312 Z M 46.671875 14.945312 " fill-opacity="1" fill-rule="nonzero"/><path fill="#ffffff" d="M 63.308594 23.570312 C 63.253906 23.570312 63.210938 23.527344 63.210938 23.472656 L 63.210938 22.769531 C 63.210938 22.71875 63.253906 22.675781 63.308594 22.675781 C 63.359375 22.675781 63.402344 22.71875 63.402344 22.769531 L 63.402344 23.472656 C 63.402344 23.527344 63.359375 23.570312 63.308594 23.570312 Z M 63.308594 23.570312 " fill-opacity="1" fill-rule="evenodd"/><g clip-path="url(#ada29c7b55)"><path fill="#ffffff" d="M 63.308594 22.867188 C 63.03125 22.867188 62.808594 22.644531 62.808594 22.367188 C 62.808594 22.09375 63.03125 21.871094 63.308594 21.871094 C 63.582031 21.871094 63.804688 22.09375 63.804688 22.367188 C 63.804688 22.644531 63.582031 22.867188 63.308594 22.867188 Z M 63.308594 22.867188 " fill-opacity="1" fill-rule="evenodd"/></g><path fill="#ffffff" d="M 64.582031 24.304688 C 64.546875 24.304688 64.515625 24.289062 64.496094 24.257812 C 64.472656 24.210938 64.488281 24.152344 64.53125 24.125 L 65.140625 23.773438 C 65.1875 23.746094 65.246094 23.765625 65.273438 23.808594 C 65.300781 23.855469 65.285156 23.914062 65.238281 23.941406 L 64.628906 24.292969 C 64.613281 24.300781 64.597656 24.304688 64.582031 24.304688 Z M 64.582031 24.304688 " fill-opacity="1" fill-rule="evenodd"/><g clip-path="url(#ab18195600)"><path fill="#ffffff" d="M 65.539062 24.15625 C 65.359375 24.15625 65.195312 24.058594 65.105469 23.90625 C 64.96875 23.667969 65.050781 23.363281 65.289062 23.226562 C 65.363281 23.179688 65.449219 23.160156 65.539062 23.160156 C 65.714844 23.160156 65.878906 23.253906 65.96875 23.40625 C 66.035156 23.523438 66.054688 23.65625 66.019531 23.785156 C 65.984375 23.914062 65.902344 24.019531 65.785156 24.089844 C 65.710938 24.132812 65.625 24.15625 65.539062 24.15625 Z M 65.539062 24.15625 " fill-opacity="1" fill-rule="evenodd"/></g><path fill="#ffffff" d="M 63.308594 26.511719 C 62.441406 26.511719 61.742188 25.808594 61.742188 24.945312 C 61.742188 24.082031 62.441406 23.378906 63.308594 23.378906 C 64.171875 23.378906 64.875 24.082031 64.875 24.945312 C 64.875 25.21875 64.800781 25.488281 64.667969 25.722656 C 64.667969 25.722656 64.664062 25.726562 64.664062 25.726562 C 64.382812 26.210938 63.863281 26.511719 63.308594 26.511719 Z M 63.308594 25.859375 C 63.105469 25.859375 62.9375 25.695312 62.9375 25.492188 C 62.9375 25.289062 63.105469 25.121094 63.308594 25.121094 C 63.511719 25.121094 63.675781 25.289062 63.675781 25.492188 C 63.675781 25.695312 63.511719 25.859375 63.308594 25.859375 Z M 63.308594 25.316406 C 63.210938 25.316406 63.128906 25.394531 63.128906 25.492188 C 63.128906 25.589844 63.210938 25.667969 63.308594 25.667969 C 63.40625 25.667969 63.484375 25.589844 63.484375 25.492188 C 63.484375 25.394531 63.40625 25.316406 63.308594 25.316406 Z M 62.839844 24.960938 C 62.816406 24.960938 62.792969 24.953125 62.773438 24.933594 C 62.734375 24.894531 62.734375 24.835938 62.773438 24.796875 C 62.914062 24.652344 63.105469 24.574219 63.308594 24.574219 C 63.507812 24.574219 63.699219 24.652344 63.839844 24.796875 C 63.878906 24.835938 63.878906 24.894531 63.839844 24.933594 C 63.804688 24.96875 63.742188 24.96875 63.707031 24.933594 C 63.597656 24.824219 63.457031 24.765625 63.308594 24.765625 C 63.15625 24.765625 63.015625 24.824219 62.910156 24.933594 C 62.890625 24.949219 62.867188 24.960938 62.839844 24.960938 Z M 64.160156 24.574219 C 64.136719 24.574219 64.109375 24.5625 64.09375 24.546875 C 63.882812 24.335938 63.605469 24.21875 63.308594 24.21875 C 63.011719 24.21875 62.730469 24.335938 62.523438 24.546875 C 62.484375 24.582031 62.421875 24.582031 62.386719 24.546875 C 62.347656 24.507812 62.347656 24.445312 62.386719 24.410156 C 62.632812 24.164062 62.960938 24.027344 63.308594 24.027344 C 63.65625 24.027344 63.980469 24.164062 64.226562 24.410156 C 64.265625 24.445312 64.265625 24.507812 64.226562 24.546875 C 64.210938 24.5625 64.183594 24.574219 64.160156 24.574219 Z M 64.160156 24.574219 " fill-opacity="1" fill-rule="evenodd"/><path fill="#ffffff" d="M 65.1875 26.128906 C 65.171875 26.128906 65.15625 26.121094 65.140625 26.113281 L 64.53125 25.761719 C 64.488281 25.738281 64.472656 25.675781 64.496094 25.632812 C 64.523438 25.585938 64.582031 25.570312 64.628906 25.597656 L 65.238281 25.949219 C 65.285156 25.972656 65.300781 26.03125 65.273438 26.078125 C 65.253906 26.109375 65.222656 26.128906 65.1875 26.128906 Z M 65.1875 26.128906 " fill-opacity="1" fill-rule="evenodd"/><g clip-path="url(#b24f9952d0)"><path fill="#ffffff" d="M 65.539062 26.730469 C 65.449219 26.730469 65.363281 26.707031 65.289062 26.664062 C 65.050781 26.527344 64.96875 26.222656 65.105469 25.984375 C 65.195312 25.828125 65.359375 25.734375 65.539062 25.734375 C 65.625 25.734375 65.710938 25.757812 65.785156 25.800781 C 65.902344 25.867188 65.984375 25.976562 66.019531 26.101562 C 66.054688 26.230469 66.035156 26.367188 65.96875 26.480469 C 65.878906 26.632812 65.714844 26.730469 65.539062 26.730469 Z M 65.539062 26.730469 " fill-opacity="1" fill-rule="evenodd"/></g><g clip-path="url(#fc8da05153)"><path fill="#ffffff" d="M 63.308594 27.214844 C 63.253906 27.214844 63.210938 27.171875 63.210938 27.117188 L 63.210938 26.414062 C 63.210938 26.363281 63.253906 26.320312 63.308594 26.320312 C 63.359375 26.320312 63.402344 26.363281 63.402344 26.414062 L 63.402344 27.117188 C 63.402344 27.171875 63.359375 27.214844 63.308594 27.214844 Z M 63.308594 27.214844 " fill-opacity="1" fill-rule="evenodd"/></g><g clip-path="url(#cbb5d1b0b9)"><path fill="#ffffff" d="M 63.308594 28.019531 C 63.03125 28.019531 62.808594 27.792969 62.808594 27.519531 C 62.808594 27.246094 63.03125 27.023438 63.308594 27.023438 C 63.582031 27.023438 63.804688 27.246094 63.804688 27.519531 C 63.804688 27.792969 63.582031 28.019531 63.308594 28.019531 Z M 63.308594 28.019531 " fill-opacity="1" fill-rule="evenodd"/></g><path fill="#ffffff" d="M 61.425781 26.128906 C 61.390625 26.128906 61.359375 26.109375 61.339844 26.078125 C 61.316406 26.03125 61.332031 25.972656 61.375 25.949219 L 61.984375 25.597656 C 62.03125 25.570312 62.089844 25.585938 62.117188 25.632812 C 62.144531 25.675781 62.128906 25.738281 62.082031 25.761719 L 61.472656 26.113281 C 61.457031 26.121094 61.441406 26.128906 61.425781 26.128906 Z M 61.425781 26.128906 " fill-opacity="1" fill-rule="evenodd"/><g clip-path="url(#3c1d4b1a83)"><path fill="#ffffff" d="M 61.078125 26.730469 C 60.898438 26.730469 60.734375 26.632812 60.644531 26.480469 C 60.578125 26.367188 60.5625 26.230469 60.59375 26.101562 C 60.628906 25.976562 60.710938 25.867188 60.828125 25.800781 C 60.902344 25.757812 60.988281 25.734375 61.078125 25.734375 C 61.253906 25.734375 61.417969 25.828125 61.507812 25.984375 C 61.574219 26.097656 61.59375 26.230469 61.558594 26.359375 C 61.523438 26.488281 61.441406 26.597656 61.324219 26.664062 C 61.25 26.707031 61.164062 26.730469 61.078125 26.730469 Z M 61.078125 26.730469 " fill-opacity="1" fill-rule="evenodd"/></g><path fill="#ffffff" d="M 62.03125 24.304688 C 62.015625 24.304688 62 24.300781 61.984375 24.292969 L 61.375 23.941406 C 61.332031 23.914062 61.316406 23.855469 61.339844 23.808594 C 61.367188 23.761719 61.425781 23.746094 61.472656 23.773438 L 62.082031 24.125 C 62.128906 24.152344 62.144531 24.210938 62.117188 24.257812 C 62.097656 24.289062 62.066406 24.304688 62.03125 24.304688 Z M 62.03125 24.304688 " fill-opacity="1" fill-rule="evenodd"/><g clip-path="url(#6a8da73b7e)"><path fill="#ffffff" d="M 61.078125 24.15625 C 60.988281 24.15625 60.902344 24.132812 60.828125 24.089844 C 60.589844 23.949219 60.507812 23.644531 60.644531 23.40625 C 60.734375 23.253906 60.898438 23.160156 61.078125 23.160156 C 61.164062 23.160156 61.25 23.179688 61.324219 23.226562 C 61.5625 23.363281 61.644531 23.667969 61.507812 23.90625 C 61.417969 24.058594 61.253906 24.15625 61.078125 24.15625 Z M 61.078125 24.15625 " fill-opacity="1" fill-rule="evenodd"/></g><path fill="#ffffff" d="M 28.925781 23.570312 C 28.875 23.570312 28.832031 23.527344 28.832031 23.472656 L 28.832031 22.769531 C 28.832031 22.71875 28.875 22.675781 28.925781 22.675781 C 28.980469 22.675781 29.023438 22.71875 29.023438 22.769531 L 29.023438 23.472656 C 29.023438 23.527344 28.980469 23.570312 28.925781 23.570312 Z M 28.925781 23.570312 " fill-opacity="1" fill-rule="evenodd"/><g clip-path="url(#d5f017f038)"><path fill="#ffffff" d="M 28.925781 22.867188 C 28.652344 22.867188 28.429688 22.644531 28.429688 22.367188 C 28.429688 22.09375 28.652344 21.871094 28.925781 21.871094 C 29.203125 21.871094 29.425781 22.09375 29.425781 22.367188 C 29.425781 22.644531 29.203125 22.867188 28.925781 22.867188 Z M 28.925781 22.867188 " fill-opacity="1" fill-rule="evenodd"/></g><path fill="#ffffff" d="M 30.203125 24.304688 C 30.167969 24.304688 30.136719 24.289062 30.117188 24.257812 C 30.09375 24.210938 30.109375 24.152344 30.152344 24.125 L 30.761719 23.773438 C 30.808594 23.746094 30.867188 23.765625 30.894531 23.808594 C 30.917969 23.855469 30.902344 23.914062 30.859375 23.941406 L 30.25 24.292969 C 30.234375 24.300781 30.21875 24.304688 30.203125 24.304688 Z M 30.203125 24.304688 " fill-opacity="1" fill-rule="evenodd"/><path fill="#ffffff" d="M 31.160156 24.15625 C 30.980469 24.15625 30.816406 24.058594 30.726562 23.90625 C 30.589844 23.667969 30.671875 23.363281 30.910156 23.226562 C 30.984375 23.179688 31.070312 23.160156 31.15625 23.160156 C 31.335938 23.160156 31.5 23.253906 31.589844 23.40625 C 31.65625 23.523438 31.671875 23.65625 31.640625 23.785156 C 31.605469 23.914062 31.523438 24.019531 31.40625 24.089844 C 31.332031 24.132812 31.246094 24.15625 31.160156 24.15625 Z M 31.160156 24.15625 " fill-opacity="1" fill-rule="evenodd"/><path fill="#ffffff" d="M 28.925781 26.511719 C 28.0625 26.511719 27.359375 25.808594 27.359375 24.945312 C 27.359375 24.082031 28.0625 23.378906 28.925781 23.378906 C 29.792969 23.378906 30.496094 24.082031 30.496094 24.945312 C 30.496094 25.21875 30.421875 25.488281 30.289062 25.722656 C 30.285156 25.722656 30.285156 25.726562 30.285156 25.726562 C 30.003906 26.210938 29.484375 26.511719 28.925781 26.511719 Z M 28.925781 25.859375 C 28.722656 25.859375 28.558594 25.695312 28.558594 25.492188 C 28.558594 25.289062 28.722656 25.121094 28.925781 25.121094 C 29.132812 25.121094 29.296875 25.289062 29.296875 25.492188 C 29.296875 25.695312 29.132812 25.859375 28.925781 25.859375 Z M 28.925781 25.316406 C 28.832031 25.316406 28.75 25.394531 28.75 25.492188 C 28.75 25.589844 28.832031 25.667969 28.925781 25.667969 C 29.023438 25.667969 29.105469 25.589844 29.105469 25.492188 C 29.105469 25.394531 29.023438 25.316406 28.925781 25.316406 Z M 28.460938 24.960938 C 28.4375 24.960938 28.414062 24.953125 28.394531 24.933594 C 28.355469 24.894531 28.355469 24.835938 28.394531 24.796875 C 28.535156 24.652344 28.726562 24.574219 28.925781 24.574219 C 29.128906 24.574219 29.320312 24.652344 29.460938 24.796875 C 29.5 24.835938 29.5 24.894531 29.460938 24.933594 C 29.425781 24.96875 29.363281 24.96875 29.324219 24.933594 C 29.21875 24.824219 29.078125 24.765625 28.925781 24.765625 C 28.777344 24.765625 28.636719 24.824219 28.53125 24.933594 C 28.511719 24.949219 28.484375 24.960938 28.460938 24.960938 Z M 29.78125 24.574219 C 29.757812 24.574219 29.730469 24.5625 29.710938 24.546875 C 29.503906 24.335938 29.222656 24.21875 28.925781 24.21875 C 28.632812 24.21875 28.351562 24.335938 28.144531 24.546875 C 28.105469 24.582031 28.042969 24.582031 28.007812 24.546875 C 27.96875 24.507812 27.96875 24.445312 28.007812 24.410156 C 28.253906 24.164062 28.578125 24.027344 28.925781 24.027344 C 29.277344 24.027344 29.601562 24.164062 29.847656 24.410156 C 29.886719 24.445312 29.886719 24.507812 29.847656 24.546875 C 29.828125 24.5625 29.804688 24.574219 29.78125 24.574219 Z M 29.78125 24.574219 " fill-opacity="1" fill-rule="evenodd"/><path fill="#ffffff" d="M 30.808594 26.128906 C 30.792969 26.128906 30.777344 26.121094 30.761719 26.113281 L 30.152344 25.761719 C 30.109375 25.738281 30.09375 25.675781 30.117188 25.632812 C 30.144531 25.585938 30.203125 25.570312 30.25 25.597656 L 30.859375 25.949219 C 30.902344 25.972656 30.917969 26.03125 30.894531 26.078125 C 30.875 26.109375 30.84375 26.128906 30.808594 26.128906 Z M 30.808594 26.128906 " fill-opacity="1" fill-rule="evenodd"/><path fill="#ffffff" d="M 31.15625 26.730469 C 31.070312 26.730469 30.984375 26.707031 30.910156 26.664062 C 30.671875 26.527344 30.589844 26.222656 30.726562 25.984375 C 30.816406 25.828125 30.980469 25.734375 31.160156 25.734375 C 31.246094 25.734375 31.332031 25.757812 31.40625 25.800781 C 31.523438 25.867188 31.605469 25.976562 31.640625 26.101562 C 31.671875 26.230469 31.65625 26.367188 31.589844 26.480469 C 31.5 26.632812 31.335938 26.730469 31.15625 26.730469 Z M 31.15625 26.730469 " fill-opacity="1" fill-rule="evenodd"/><g clip-path="url(#97c2a89bef)"><path fill="#ffffff" d="M 28.925781 27.214844 C 28.875 27.214844 28.832031 27.171875 28.832031 27.117188 L 28.832031 26.414062 C 28.832031 26.363281 28.875 26.320312 28.925781 26.320312 C 28.980469 26.320312 29.023438 26.363281 29.023438 26.414062 L 29.023438 27.117188 C 29.023438 27.171875 28.980469 27.214844 28.925781 27.214844 Z M 28.925781 27.214844 " fill-opacity="1" fill-rule="evenodd"/></g><g clip-path="url(#2cb551555b)"><path fill="#ffffff" d="M 28.925781 28.019531 C 28.652344 28.019531 28.429688 27.792969 28.429688 27.519531 C 28.429688 27.246094 28.652344 27.023438 28.925781 27.023438 C 29.203125 27.023438 29.425781 27.246094 29.425781 27.519531 C 29.425781 27.792969 29.203125 28.019531 28.925781 28.019531 Z M 28.925781 28.019531 " fill-opacity="1" fill-rule="evenodd"/></g><g clip-path="url(#6f5c557ed6)"><path fill="#ffffff" d="M 27.046875 26.128906 C 27.011719 26.128906 26.980469 26.109375 26.960938 26.078125 C 26.9375 26.03125 26.953125 25.972656 26.996094 25.949219 L 27.605469 25.597656 C 27.652344 25.570312 27.710938 25.585938 27.738281 25.632812 C 27.761719 25.675781 27.746094 25.738281 27.703125 25.761719 L 27.09375 26.113281 C 27.078125 26.121094 27.0625 26.128906 27.046875 26.128906 Z M 27.046875 26.128906 " fill-opacity="1" fill-rule="evenodd"/><path fill="#ffffff" d="M 26.699219 26.730469 C 26.519531 26.730469 26.355469 26.632812 26.265625 26.480469 C 26.199219 26.367188 26.183594 26.230469 26.214844 26.101562 C 26.25 25.976562 26.332031 25.867188 26.449219 25.800781 C 26.523438 25.757812 26.609375 25.734375 26.695312 25.734375 C 26.875 25.734375 27.039062 25.828125 27.128906 25.984375 C 27.195312 26.097656 27.210938 26.230469 27.179688 26.359375 C 27.144531 26.488281 27.0625 26.597656 26.945312 26.664062 C 26.871094 26.707031 26.785156 26.730469 26.699219 26.730469 Z M 26.699219 26.730469 " fill-opacity="1" fill-rule="evenodd"/></g><g clip-path="url(#59543b1183)"><path fill="#ffffff" d="M 27.652344 24.304688 C 27.636719 24.304688 27.621094 24.300781 27.605469 24.292969 L 26.996094 23.941406 C 26.953125 23.914062 26.9375 23.855469 26.960938 23.808594 C 26.988281 23.761719 27.046875 23.746094 27.09375 23.773438 L 27.703125 24.125 C 27.746094 24.152344 27.761719 24.210938 27.738281 24.257812 C 27.71875 24.289062 27.6875 24.304688 27.652344 24.304688 Z M 27.652344 24.304688 " fill-opacity="1" fill-rule="evenodd"/><path fill="#ffffff" d="M 26.695312 24.15625 C 26.609375 24.15625 26.523438 24.132812 26.449219 24.089844 C 26.210938 23.949219 26.128906 23.644531 26.265625 23.40625 C 26.355469 23.253906 26.519531 23.160156 26.699219 23.160156 C 26.785156 23.160156 26.871094 23.179688 26.945312 23.226562 C 27.183594 23.363281 27.265625 23.667969 27.128906 23.90625 C 27.039062 24.058594 26.875 24.15625 26.695312 24.15625 Z M 26.695312 24.15625 " fill-opacity="1" fill-rule="evenodd"/></g><g fill="#ffffff" fill-opacity="1"><g transform="translate(76.574192, 22.588854)"><g><path d="M 0.15625 -8.78125 L 0.15625 -11.0625 L 5.65625 -11.0625 L 5.65625 -8.78125 C 5.375 -8.78125 5.171875 -8.753906 5.046875 -8.703125 C 4.921875 -8.648438 4.859375 -8.53125 4.859375 -8.34375 C 4.859375 -8.15625 4.910156 -7.867188 5.015625 -7.484375 L 5.421875 -5.484375 L 6.71875 -11.0625 L 9.453125 -11.0625 L 10.75 -5.515625 L 11.140625 -7.46875 C 11.191406 -7.6875 11.234375 -7.867188 11.265625 -8.015625 C 11.304688 -8.160156 11.328125 -8.28125 11.328125 -8.375 C 11.328125 -8.550781 11.265625 -8.660156 11.140625 -8.703125 C 11.015625 -8.753906 10.804688 -8.78125 10.515625 -8.78125 L 10.515625 -11.0625 L 14.828125 -11.0625 L 14.828125 -8.78125 C 14.484375 -8.78125 14.222656 -8.753906 14.046875 -8.703125 C 13.878906 -8.648438 13.753906 -8.535156 13.671875 -8.359375 C 13.585938 -8.191406 13.488281 -7.921875 13.375 -7.546875 L 11.515625 0 L 8.828125 0 L 7.484375 -5.625 L 6.140625 0 L 3.4375 0 L 1.609375 -7.546875 C 1.503906 -7.921875 1.40625 -8.191406 1.3125 -8.359375 C 1.21875 -8.535156 1.085938 -8.648438 0.921875 -8.703125 C 0.753906 -8.753906 0.5 -8.78125 0.15625 -8.78125 Z M 0.15625 -8.78125 "/></g></g></g><g fill="#ffffff" fill-opacity="1"><g transform="translate(96.810565, 22.588854)"><g><path d="M 1.65625 -11.0625 L 7.90625 -11.0625 L 10.046875 -3.515625 C 10.179688 -3.148438 10.300781 -2.878906 10.40625 -2.703125 C 10.519531 -2.523438 10.648438 -2.410156 10.796875 -2.359375 C 10.953125 -2.304688 11.171875 -2.28125 11.453125 -2.28125 L 11.453125 0 L 5.90625 0 L 5.90625 -2.28125 C 6.144531 -2.28125 6.320312 -2.300781 6.4375 -2.34375 C 6.550781 -2.394531 6.609375 -2.5 6.609375 -2.65625 C 6.609375 -2.8125 6.523438 -3.117188 6.359375 -3.578125 L 6.34375 -3.71875 L 4.6875 -3.71875 L 4.671875 -3.59375 C 4.585938 -3.375 4.523438 -3.1875 4.484375 -3.03125 C 4.441406 -2.875 4.421875 -2.742188 4.421875 -2.640625 C 4.421875 -2.484375 4.476562 -2.382812 4.59375 -2.34375 C 4.707031 -2.300781 4.882812 -2.28125 5.125 -2.28125 L 5.125 0 L 0.15625 0 L 0.15625 -2.28125 C 0.445312 -2.28125 0.664062 -2.304688 0.8125 -2.359375 C 0.96875 -2.410156 1.097656 -2.523438 1.203125 -2.703125 C 1.316406 -2.878906 1.441406 -3.148438 1.578125 -3.515625 L 3 -8.75 C 2.8125 -8.757812 2.601562 -8.765625 2.375 -8.765625 C 2.144531 -8.773438 1.90625 -8.78125 1.65625 -8.78125 Z M 5.546875 -7.328125 L 5.109375 -5.4375 L 5.984375 -5.4375 L 5.71875 -6.703125 C 5.695312 -6.828125 5.671875 -6.941406 5.640625 -7.046875 C 5.617188 -7.148438 5.585938 -7.242188 5.546875 -7.328125 Z M 5.546875 -7.328125 "/></g></g></g><g fill="#ffffff" fill-opacity="1"><g transform="translate(113.692263, 22.588854)"><g><path d="M 0.28125 -11.0625 L 10 -11.0625 L 10 -6.796875 L 7.90625 -6.796875 C 7.90625 -7.203125 7.882812 -7.515625 7.84375 -7.734375 C 7.800781 -7.953125 7.707031 -8.109375 7.5625 -8.203125 C 7.414062 -8.296875 7.191406 -8.347656 6.890625 -8.359375 L 6.890625 -3.078125 C 6.890625 -2.742188 6.9375 -2.523438 7.03125 -2.421875 C 7.125 -2.328125 7.332031 -2.28125 7.65625 -2.28125 L 7.65625 0 L 2.59375 0 L 2.59375 -2.28125 C 2.9375 -2.28125 3.15625 -2.328125 3.25 -2.421875 C 3.351562 -2.523438 3.40625 -2.742188 3.40625 -3.078125 L 3.40625 -8.359375 C 2.945312 -8.335938 2.660156 -8.222656 2.546875 -8.015625 C 2.429688 -7.804688 2.375 -7.398438 2.375 -6.796875 L 0.28125 -6.796875 Z M 0.28125 -11.0625 "/></g></g></g><g fill="#ffffff" fill-opacity="1"><g transform="translate(129.239111, 22.588854)"><g><path d="M 10.9375 -11.0625 L 10.9375 -6.984375 L 8.65625 -6.984375 C 8.65625 -7.460938 8.625 -7.8125 8.5625 -8.03125 C 8.5 -8.257812 8.351562 -8.40625 8.125 -8.46875 C 7.90625 -8.539062 7.554688 -8.578125 7.078125 -8.578125 L 4.921875 -8.578125 L 4.921875 -6.78125 L 7.796875 -6.78125 L 7.796875 -4.28125 L 4.921875 -4.28125 L 4.921875 -2.5 L 7.078125 -2.5 C 7.554688 -2.5 7.90625 -2.53125 8.125 -2.59375 C 8.351562 -2.65625 8.5 -2.800781 8.5625 -3.03125 C 8.625 -3.257812 8.65625 -3.609375 8.65625 -4.078125 L 10.9375 -4.078125 L 10.9375 0 L 0.625 0 L 0.625 -2.28125 C 0.96875 -2.28125 1.1875 -2.328125 1.28125 -2.421875 C 1.382812 -2.523438 1.4375 -2.742188 1.4375 -3.078125 L 1.4375 -7.984375 C 1.4375 -8.328125 1.382812 -8.546875 1.28125 -8.640625 C 1.1875 -8.734375 0.96875 -8.78125 0.625 -8.78125 L 0.625 -11.0625 Z M 10.9375 -11.0625 "/></g></g></g><g fill="#ffffff" fill-opacity="1"><g transform="translate(145.80466, 22.588854)"><g><path d="M 11.9375 -2.28125 L 11.9375 0 C 11.9375 0 11.769531 0.0234375 11.4375 0.078125 C 11.101562 0.128906 10.628906 0.15625 10.015625 0.15625 C 9.160156 0.15625 8.507812 0.00390625 8.0625 -0.296875 C 7.625 -0.597656 7.328125 -1.066406 7.171875 -1.703125 L 6.671875 -3.546875 C 6.597656 -3.804688 6.488281 -3.988281 6.34375 -4.09375 C 6.195312 -4.207031 5.921875 -4.265625 5.515625 -4.265625 L 4.90625 -4.265625 L 4.90625 -3.078125 C 4.90625 -2.742188 4.953125 -2.523438 5.046875 -2.421875 C 5.148438 -2.328125 5.363281 -2.28125 5.6875 -2.28125 L 5.6875 0 L 0.625 0 L 0.625 -2.28125 C 0.96875 -2.28125 1.1875 -2.328125 1.28125 -2.421875 C 1.382812 -2.523438 1.4375 -2.742188 1.4375 -3.078125 L 1.4375 -7.984375 C 1.4375 -8.328125 1.382812 -8.546875 1.28125 -8.640625 C 1.1875 -8.734375 0.96875 -8.78125 0.625 -8.78125 L 0.625 -11.0625 L 7.140625 -11.0625 C 8.441406 -11.0625 9.398438 -10.804688 10.015625 -10.296875 C 10.628906 -9.785156 10.9375 -8.976562 10.9375 -7.875 C 10.9375 -6.5625 10.492188 -5.671875 9.609375 -5.203125 C 9.710938 -5.046875 9.804688 -4.882812 9.890625 -4.71875 C 9.984375 -4.5625 10.050781 -4.382812 10.09375 -4.1875 L 10.390625 -3.125 C 10.453125 -2.894531 10.523438 -2.71875 10.609375 -2.59375 C 10.703125 -2.46875 10.847656 -2.382812 11.046875 -2.34375 C 11.242188 -2.300781 11.539062 -2.28125 11.9375 -2.28125 Z M 4.90625 -8.578125 L 4.90625 -6.765625 L 6.390625 -6.765625 C 6.765625 -6.765625 7.039062 -6.832031 7.21875 -6.96875 C 7.394531 -7.101562 7.484375 -7.332031 7.484375 -7.65625 C 7.484375 -8 7.394531 -8.238281 7.21875 -8.375 C 7.039062 -8.507812 6.765625 -8.578125 6.390625 -8.578125 Z M 4.90625 -8.578125 "/></g></g></g><g fill="#ffffff" fill-opacity="1"><g transform="translate(163.176231, 23.371449)"><g><path d="M 0.3125 -0.625 L 0.3125 -3.796875 L 2.609375 -3.796875 C 2.867188 -3.304688 3.222656 -2.9375 3.671875 -2.6875 C 4.117188 -2.445312 4.695312 -2.328125 5.40625 -2.328125 C 5.84375 -2.328125 6.144531 -2.390625 6.3125 -2.515625 C 6.476562 -2.640625 6.5625 -2.8125 6.5625 -3.03125 C 6.5625 -3.269531 6.46875 -3.453125 6.28125 -3.578125 C 6.09375 -3.710938 5.8125 -3.832031 5.4375 -3.9375 L 3.234375 -4.53125 C 2.242188 -4.800781 1.507812 -5.210938 1.03125 -5.765625 C 0.550781 -6.328125 0.3125 -7.0625 0.3125 -7.96875 C 0.3125 -9.082031 0.6875 -9.898438 1.4375 -10.421875 C 2.195312 -10.953125 3.425781 -11.21875 5.125 -11.21875 C 6.03125 -11.21875 6.816406 -11.148438 7.484375 -11.015625 C 8.160156 -10.878906 8.6875 -10.75 9.0625 -10.625 C 9.445312 -10.5 9.640625 -10.4375 9.640625 -10.4375 L 9.640625 -7.265625 L 7.34375 -7.265625 C 7.164062 -7.765625 6.847656 -8.132812 6.390625 -8.375 C 5.941406 -8.613281 5.40625 -8.734375 4.78125 -8.734375 C 4.488281 -8.734375 4.25 -8.675781 4.0625 -8.5625 C 3.882812 -8.457031 3.796875 -8.289062 3.796875 -8.0625 C 3.796875 -7.84375 3.859375 -7.648438 3.984375 -7.484375 C 4.117188 -7.328125 4.382812 -7.195312 4.78125 -7.09375 L 7.109375 -6.484375 C 8.117188 -6.222656 8.859375 -5.816406 9.328125 -5.265625 C 9.796875 -4.722656 10.03125 -4 10.03125 -3.09375 C 10.03125 -2.457031 9.878906 -1.894531 9.578125 -1.40625 C 9.273438 -0.925781 8.757812 -0.546875 8.03125 -0.265625 C 7.3125 0.015625 6.320312 0.15625 5.0625 0.15625 C 4.039062 0.15625 3.175781 0.09375 2.46875 -0.03125 C 1.769531 -0.164062 1.234375 -0.296875 0.859375 -0.421875 C 0.492188 -0.554688 0.3125 -0.625 0.3125 -0.625 Z M 0.3125 -0.625 "/></g></g></g><g fill="#ffffff" fill-opacity="1"><g transform="translate(178.793302, 23.371449)"><g><path d="M 10.9375 -11.0625 L 10.9375 -6.984375 L 8.65625 -6.984375 C 8.65625 -7.460938 8.625 -7.8125 8.5625 -8.03125 C 8.5 -8.257812 8.351562 -8.40625 8.125 -8.46875 C 7.90625 -8.539062 7.554688 -8.578125 7.078125 -8.578125 L 4.921875 -8.578125 L 4.921875 -6.78125 L 7.796875 -6.78125 L 7.796875 -4.28125 L 4.921875 -4.28125 L 4.921875 -2.5 L 7.078125 -2.5 C 7.554688 -2.5 7.90625 -2.53125 8.125 -2.59375 C 8.351562 -2.65625 8.5 -2.800781 8.5625 -3.03125 C 8.625 -3.257812 8.65625 -3.609375 8.65625 -4.078125 L 10.9375 -4.078125 L 10.9375 0 L 0.625 0 L 0.625 -2.28125 C 0.96875 -2.28125 1.1875 -2.328125 1.28125 -2.421875 C 1.382812 -2.523438 1.4375 -2.742188 1.4375 -3.078125 L 1.4375 -7.984375 C 1.4375 -8.328125 1.382812 -8.546875 1.28125 -8.640625 C 1.1875 -8.734375 0.96875 -8.78125 0.625 -8.78125 L 0.625 -11.0625 Z M 10.9375 -11.0625 "/></g></g></g><g fill="#ffffff" fill-opacity="1"><g transform="translate(195.358805, 23.371449)"><g><path d="M 0.625 -8.78125 L 0.625 -11.0625 L 4.703125 -11.0625 L 8.65625 -5.578125 L 8.65625 -7.984375 C 8.65625 -8.328125 8.609375 -8.546875 8.515625 -8.640625 C 8.421875 -8.734375 8.207031 -8.78125 7.875 -8.78125 L 7.875 -11.0625 L 12.328125 -11.0625 L 12.328125 -8.78125 C 12.003906 -8.78125 11.789062 -8.734375 11.6875 -8.640625 C 11.582031 -8.546875 11.53125 -8.328125 11.53125 -7.984375 L 11.53125 0 L 8.25 0 L 4.296875 -5.5625 L 4.296875 -3.078125 C 4.296875 -2.742188 4.34375 -2.523438 4.4375 -2.421875 C 4.539062 -2.328125 4.757812 -2.28125 5.09375 -2.28125 L 5.09375 0 L 0.625 0 L 0.625 -2.28125 C 0.96875 -2.28125 1.1875 -2.328125 1.28125 -2.421875 C 1.375 -2.523438 1.421875 -2.742188 1.421875 -3.078125 L 1.421875 -8.734375 C 1.210938 -8.765625 0.945312 -8.78125 0.625 -8.78125 Z M 0.625 -8.78125 "/></g></g></g><g fill="#ffffff" fill-opacity="1"><g transform="translate(213.188889, 23.371449)"><g><path d="M 0.3125 -0.625 L 0.3125 -3.796875 L 2.609375 -3.796875 C 2.867188 -3.304688 3.222656 -2.9375 3.671875 -2.6875 C 4.117188 -2.445312 4.695312 -2.328125 5.40625 -2.328125 C 5.84375 -2.328125 6.144531 -2.390625 6.3125 -2.515625 C 6.476562 -2.640625 6.5625 -2.8125 6.5625 -3.03125 C 6.5625 -3.269531 6.46875 -3.453125 6.28125 -3.578125 C 6.09375 -3.710938 5.8125 -3.832031 5.4375 -3.9375 L 3.234375 -4.53125 C 2.242188 -4.800781 1.507812 -5.210938 1.03125 -5.765625 C 0.550781 -6.328125 0.3125 -7.0625 0.3125 -7.96875 C 0.3125 -9.082031 0.6875 -9.898438 1.4375 -10.421875 C 2.195312 -10.953125 3.425781 -11.21875 5.125 -11.21875 C 6.03125 -11.21875 6.816406 -11.148438 7.484375 -11.015625 C 8.160156 -10.878906 8.6875 -10.75 9.0625 -10.625 C 9.445312 -10.5 9.640625 -10.4375 9.640625 -10.4375 L 9.640625 -7.265625 L 7.34375 -7.265625 C 7.164062 -7.765625 6.847656 -8.132812 6.390625 -8.375 C 5.941406 -8.613281 5.40625 -8.734375 4.78125 -8.734375 C 4.488281 -8.734375 4.25 -8.675781 4.0625 -8.5625 C 3.882812 -8.457031 3.796875 -8.289062 3.796875 -8.0625 C 3.796875 -7.84375 3.859375 -7.648438 3.984375 -7.484375 C 4.117188 -7.328125 4.382812 -7.195312 4.78125 -7.09375 L 7.109375 -6.484375 C 8.117188 -6.222656 8.859375 -5.816406 9.328125 -5.265625 C 9.796875 -4.722656 10.03125 -4 10.03125 -3.09375 C 10.03125 -2.457031 9.878906 -1.894531 9.578125 -1.40625 C 9.273438 -0.925781 8.757812 -0.546875 8.03125 -0.265625 C 7.3125 0.015625 6.320312 0.15625 5.0625 0.15625 C 4.039062 0.15625 3.175781 0.09375 2.46875 -0.03125 C 1.769531 -0.164062 1.234375 -0.296875 0.859375 -0.421875 C 0.492188 -0.554688 0.3125 -0.625 0.3125 -0.625 Z M 0.3125 -0.625 "/></g></g></g><g fill="#ffffff" fill-opacity="1"><g transform="translate(228.80596, 23.371449)"><g><path d="M 10.9375 -11.0625 L 10.9375 -6.984375 L 8.65625 -6.984375 C 8.65625 -7.460938 8.625 -7.8125 8.5625 -8.03125 C 8.5 -8.257812 8.351562 -8.40625 8.125 -8.46875 C 7.90625 -8.539062 7.554688 -8.578125 7.078125 -8.578125 L 4.921875 -8.578125 L 4.921875 -6.78125 L 7.796875 -6.78125 L 7.796875 -4.28125 L 4.921875 -4.28125 L 4.921875 -2.5 L 7.078125 -2.5 C 7.554688 -2.5 7.90625 -2.53125 8.125 -2.59375 C 8.351562 -2.65625 8.5 -2.800781 8.5625 -3.03125 C 8.625 -3.257812 8.65625 -3.609375 8.65625 -4.078125 L 10.9375 -4.078125 L 10.9375 0 L 0.625 0 L 0.625 -2.28125 C 0.96875 -2.28125 1.1875 -2.328125 1.28125 -2.421875 C 1.382812 -2.523438 1.4375 -2.742188 1.4375 -3.078125 L 1.4375 -7.984375 C 1.4375 -8.328125 1.382812 -8.546875 1.28125 -8.640625 C 1.1875 -8.734375 0.96875 -8.78125 0.625 -8.78125 L 0.625 -11.0625 Z M 10.9375 -11.0625 "/></g></g></g></svg>